<?xml version="1.0" encoding="UTF-8" standalone="no"?>
<svg width="1417.32px" height="425.197px" viewBox="0 0 1417.32 425.197"
 xmlns="http://www.w3.org/2000/svg" xmlns:xlink="http://www.w3.org/1999/xlink" version="1.2" baseProfile="tiny">
<title>Senza titolo-2</title>
<desc>Generated by MuseScore 3.3.4</desc>
<polyline class="StaffLines" fill="none" stroke="#000000" stroke-width="2.00" stroke-linejoin="bevel" points="42.5197,175.011 1374.8,175.011"/>
<polyline class="StaffLines" fill="none" stroke="#000000" stroke-width="2.00" stroke-linejoin="bevel" points="42.5197,200.013 1374.8,200.013"/>
<polyline class="StaffLines" fill="none" stroke="#000000" stroke-width="2.00" stroke-linejoin="bevel" points="42.5197,225.014 1374.8,225.014"/>
<polyline class="StaffLines" fill="none" stroke="#000000" stroke-width="2.00" stroke-linejoin="bevel" points="42.5197,250.016 1374.8,250.016"/>
<polyline class="StaffLines" fill="none" stroke="#000000" stroke-width="2.00" stroke-linejoin="bevel" points="42.5197,275.017 1374.8,275.017"/>
<polyline class="BarLine" fill="none" stroke="#000000" stroke-width="4.00" stroke-linejoin="bevel" points="426.138,174.011 426.138,276.017"/>
<polyline class="BarLine" fill="none" stroke="#000000" stroke-width="4.00" stroke-linejoin="bevel" points="660.06,174.011 660.06,276.017"/>
<polyline class="BarLine" fill="none" stroke="#000000" stroke-width="4.00" stroke-linejoin="bevel" points="895.642,174.011 895.642,276.017"/>
<polyline class="BarLine" fill="none" stroke="#000000" stroke-width="4.00" stroke-linejoin="bevel" points="1129.56,174.011 1129.56,276.017"/>
<polyline class="BarLine" fill="none" stroke="#000000" stroke-width="4.00" stroke-linejoin="bevel" points="1350.3,174.011 1350.3,276.017"/>
<polyline class="BarLine" fill="none" stroke="#000000" stroke-width="12.50" stroke-linejoin="bevel" points="1368.55,174.011 1368.55,276.017"/>
<path class="Note" d="M262.188,201.283 C259.845,201.283 258.152,202.097 257.11,203.724 C255.938,205.287 255.352,207.403 255.352,210.072 C255.352,213.132 256.166,215.769 257.794,217.982 C259.421,220.131 261.212,221.628 263.165,222.474 C264.923,223.321 266.778,223.744 268.731,223.744 C271.01,223.744 272.735,222.93 273.907,221.302 C275.014,219.675 275.567,217.559 275.567,214.955 C275.567,211.895 274.754,209.258 273.126,207.045 C271.498,204.961 269.741,203.464 267.852,202.552 C265.964,201.706 264.076,201.283 262.188,201.283 M265.509,198.744 C272.54,198.744 278.399,200.111 283.087,202.845 C287.839,205.58 290.216,208.802 290.216,212.513 C290.216,216.485 287.774,219.74 282.892,222.279 C278.009,224.948 272.214,226.283 265.509,226.283 C258.608,226.283 252.748,224.916 247.931,222.181 C243.113,219.447 240.704,216.224 240.704,212.513 C240.704,208.542 243.178,205.287 248.126,202.748 C253.009,200.078 258.803,198.744 265.509,198.744"/>
<path class="Note" d="M482.926,213.784 C480.582,213.784 478.889,214.598 477.848,216.225 C476.676,217.788 476.09,219.903 476.09,222.573 C476.09,225.633 476.904,228.269 478.531,230.483 C480.159,232.631 481.949,234.129 483.902,234.975 C485.66,235.821 487.516,236.245 489.469,236.245 C491.747,236.245 493.473,235.431 494.645,233.803 C495.751,232.176 496.305,230.06 496.305,227.456 C496.305,224.396 495.491,221.759 493.863,219.545 C492.236,217.462 490.478,215.965 488.59,215.053 C486.702,214.207 484.814,213.784 482.926,213.784 M486.246,211.245 C493.277,211.245 499.137,212.612 503.824,215.346 C508.577,218.081 510.953,221.303 510.953,225.014 C510.953,228.986 508.512,232.241 503.629,234.78 C498.746,237.449 492.952,238.784 486.246,238.784 C479.345,238.784 473.486,237.417 468.668,234.682 C463.85,231.948 461.441,228.725 461.441,225.014 C461.441,221.043 463.915,217.788 468.863,215.249 C473.746,212.579 479.54,211.245 486.246,211.245"/>
<path class="Note" d="M708.546,226.284 C706.203,226.284 704.51,227.098 703.468,228.726 C702.296,230.288 701.71,232.404 701.71,235.074 C701.71,238.133 702.524,240.77 704.152,242.984 C705.779,245.132 707.57,246.63 709.523,247.476 C711.281,248.322 713.136,248.745 715.089,248.745 C717.368,248.745 719.093,247.932 720.265,246.304 C721.372,244.676 721.925,242.561 721.925,239.956 C721.925,236.896 721.111,234.26 719.484,232.046 C717.856,229.963 716.098,228.465 714.21,227.554 C712.322,226.708 710.434,226.284 708.546,226.284 M711.867,223.745 C718.898,223.745 724.757,225.113 729.445,227.847 C734.197,230.581 736.574,233.804 736.574,237.515 C736.574,241.486 734.132,244.742 729.249,247.281 C724.367,249.95 718.572,251.284 711.867,251.284 C704.966,251.284 699.106,249.917 694.289,247.183 C689.471,244.449 687.062,241.226 687.062,237.515 C687.062,233.544 689.536,230.288 694.484,227.749 C699.367,225.08 705.161,223.745 711.867,223.745"/>
<path class="Note" d="M952.43,213.784 C950.086,213.784 948.393,214.598 947.352,216.225 C946.18,217.788 945.594,219.903 945.594,222.573 C945.594,225.633 946.408,228.269 948.035,230.483 C949.663,232.631 951.453,234.129 953.406,234.975 C955.164,235.821 957.02,236.245 958.973,236.245 C961.251,236.245 962.977,235.431 964.148,233.803 C965.255,232.176 965.809,230.06 965.809,227.456 C965.809,224.396 964.995,221.759 963.367,219.545 C961.74,217.462 959.982,215.965 958.094,215.053 C956.206,214.207 954.318,213.784 952.43,213.784 M955.75,211.245 C962.781,211.245 968.641,212.612 973.328,215.346 C978.081,218.081 980.457,221.303 980.457,225.014 C980.457,228.986 978.016,232.241 973.133,234.78 C968.25,237.449 962.456,238.784 955.75,238.784 C948.849,238.784 942.99,237.417 938.172,234.682 C933.354,231.948 930.945,228.725 930.945,225.014 C930.945,221.043 933.419,217.788 938.367,215.249 C943.25,212.579 949.044,211.245 955.75,211.245"/>
<path class="Note" d="M1186.35,201.283 C1184.01,201.283 1182.32,202.097 1181.27,203.724 C1180.1,205.287 1179.52,207.403 1179.52,210.072 C1179.52,213.132 1180.33,215.769 1181.96,217.982 C1183.58,220.131 1185.38,221.628 1187.33,222.474 C1189.09,223.321 1190.94,223.744 1192.89,223.744 C1195.17,223.744 1196.9,222.93 1198.07,221.302 C1199.18,219.675 1199.73,217.559 1199.73,214.955 C1199.73,211.895 1198.92,209.258 1197.29,207.045 C1195.66,204.961 1193.9,203.464 1192.02,202.552 C1190.13,201.706 1188.24,201.283 1186.35,201.283 M1189.67,198.744 C1196.7,198.744 1202.56,200.111 1207.25,202.845 C1212,205.58 1214.38,208.802 1214.38,212.513 C1214.38,216.485 1211.94,219.74 1207.05,222.279 C1202.17,224.948 1196.38,226.283 1189.67,226.283 C1182.77,226.283 1176.91,224.916 1172.09,222.181 C1167.28,219.447 1164.87,216.224 1164.87,212.513 C1164.87,208.542 1167.34,205.287 1172.29,202.748 C1177.17,200.078 1182.97,198.744 1189.67,198.744"/>
<path class="Clef" d="M99.2397,224.43 C99.2397,224.43 99.435,224.43 99.8256,224.43 C100.086,224.365 100.314,224.332 100.509,224.332 C107.801,224.332 113.79,226.904 118.478,232.047 C123.165,237.125 125.509,243.05 125.509,249.82 C125.509,258.219 122.026,265.055 115.06,270.328 C113.237,271.761 110.861,272.932 107.931,273.844 C108.257,278.076 108.419,281.494 108.419,284.098 C108.419,284.619 108.354,286.507 108.224,289.762 C107.964,295.817 105.88,301.057 101.974,305.484 C98.198,309.846 93.5105,312.027 87.9116,312.027 C82.6381,312.027 78.1459,310.172 74.435,306.461 C70.7241,302.685 68.8686,298.128 68.8686,292.789 C68.8686,289.99 69.9428,287.613 72.0913,285.66 C74.3048,283.707 76.8764,282.731 79.8061,282.731 C82.4103,282.731 84.5913,283.74 86.3491,285.758 C88.172,287.646 89.0834,289.99 89.0834,292.789 C89.0834,295.328 88.172,297.509 86.3491,299.332 C84.5262,301.155 82.3452,302.067 79.8061,302.067 C78.7644,302.067 77.7553,301.871 76.7788,301.481 C79.6433,305.712 83.4519,307.828 88.2045,307.828 C92.6967,307.828 96.3751,306.005 99.2397,302.359 C102.234,298.583 103.862,294.189 104.123,289.176 C104.253,286.051 104.318,284.261 104.318,283.805 C104.318,280.159 104.188,277.164 103.927,274.82 C100.672,275.341 97.7749,275.602 95.2358,275.602 C86.1863,275.602 78.4715,272.021 72.0913,264.859 C65.8413,257.633 62.7163,249.039 62.7163,239.078 C62.7163,236.995 62.9116,234.879 63.3022,232.731 C63.6928,230.973 64.1811,229.052 64.767,226.969 C65.0926,225.797 65.9715,223.909 67.4038,221.305 C67.9246,220.524 68.5105,219.547 69.1616,218.375 C69.8126,217.203 70.2683,216.422 70.5288,216.031 C71.1798,214.729 72.4493,212.971 74.3374,210.758 C74.8582,210.172 75.3953,209.521 75.9487,208.805 C76.5021,208.089 76.9741,207.503 77.3647,207.047 C77.7553,206.591 78.0483,206.233 78.2436,205.973 C78.4389,205.712 79.9038,203.987 82.6381,200.797 C83.2892,200.146 83.9239,199.446 84.5424,198.697 C85.1609,197.949 85.6655,197.363 86.0561,196.94 C86.4467,196.516 86.7397,196.207 86.935,196.012 C84.5913,188.264 83.1264,182.08 82.5405,177.457 C82.0847,173.746 81.8569,168.668 81.8569,162.223 C81.8569,156.559 83.159,151.253 85.7631,146.305 C88.3022,141.162 91.8504,136.962 96.4077,133.707 C96.6681,133.512 96.9936,133.414 97.3842,133.414 C97.84,133.414 98.1655,133.512 98.3608,133.707 C101.876,137.939 104.904,143.44 107.443,150.211 C110.047,156.982 111.349,163.134 111.349,168.668 C111.349,174.918 109.852,180.777 106.857,186.246 C103.471,192.04 99.1095,198.03 93.7709,204.215 C95.1381,208.512 96.961,215.25 99.2397,224.43 M107.54,269.84 C110.926,268.603 113.563,266.487 115.451,263.492 C117.534,260.628 118.576,257.405 118.576,253.824 C118.576,249.202 117.013,245.1 113.888,241.52 C110.698,237.809 106.629,235.725 101.681,235.27 C104.481,249.007 106.434,260.53 107.54,269.84 M69.7475,247.281 C69.7475,253.727 72.3517,259.391 77.56,264.274 C82.8985,269.026 88.8881,271.402 95.5288,271.402 C98.2631,271.402 100.932,271.207 103.537,270.817 C102.495,260.921 100.444,249.072 97.3842,235.27 C93.6733,235.66 90.711,236.962 88.4975,239.176 C86.3491,241.455 85.2749,244.026 85.2749,246.891 C85.2749,251.839 87.9116,255.843 93.185,258.902 C93.6407,259.358 93.8686,259.846 93.8686,260.367 C93.8686,260.888 93.6407,261.376 93.185,261.832 C92.7944,262.288 92.3061,262.516 91.7202,262.516 C91.6551,262.516 91.3621,262.451 90.8413,262.32 C87.1303,260.302 84.2657,257.698 82.2475,254.508 C80.3595,251.123 79.4155,247.705 79.4155,244.254 C79.4155,239.762 80.8152,235.693 83.6147,232.047 C86.5444,228.401 90.353,226.057 95.0405,225.016 C93.2176,217.724 91.7202,212.027 90.5483,207.926 C89.5066,209.098 88.2534,210.514 86.7885,212.174 C85.3237,213.834 84.461,214.827 84.2006,215.152 C81.8569,218.212 80.0665,220.589 78.8295,222.281 C76.616,225.341 74.9884,227.978 73.9467,230.192 C72.84,232.665 71.8634,235.367 71.017,238.297 C70.1707,241.096 69.7475,244.091 69.7475,247.281 M102.365,147.965 C97.4819,150.374 93.6407,153.824 90.8413,158.317 C87.9767,162.939 86.5444,167.919 86.5444,173.258 C86.5444,177.945 87.7163,184.261 90.06,192.203 C94.7475,186.539 98.2631,181.298 100.607,176.481 C103.081,171.402 104.318,166.096 104.318,160.563 C104.318,156.396 103.667,152.197 102.365,147.965"/>
<path class="TimeSig" d="M173.253,176.196 C175.206,176.196 176.866,175.968 178.234,175.513 C179.601,175.057 180.48,174.829 180.87,174.829 C181.326,174.829 181.684,174.959 181.944,175.22 C182.14,175.415 182.27,175.643 182.335,175.903 C182.335,176.033 182.27,176.229 182.14,176.489 L153.722,209.497 L170.421,209.497 L170.421,196.411 C170.421,195.565 170.649,194.849 171.105,194.263 C171.886,193.612 172.537,193.221 173.058,193.091 C173.904,192.7 174.946,191.789 176.183,190.356 C177.224,189.184 178.461,187.134 179.894,184.204 C180.089,183.813 180.382,183.618 180.773,183.618 C181.554,183.618 182.01,184.074 182.14,184.985 L182.14,209.497 L189.269,209.497 C190.18,209.497 190.701,209.985 190.831,210.962 C190.831,211.938 190.31,212.427 189.269,212.427 L182.14,212.427 L182.14,213.208 C182.14,215.812 182.791,218.026 184.093,219.849 C185.59,221.671 187.348,222.583 189.366,222.583 C190.148,222.583 190.538,222.974 190.538,223.755 C190.538,224.536 190.148,224.927 189.366,224.927 C187.999,224.927 185.786,224.731 182.726,224.341 C179.926,223.885 177.745,223.657 176.183,223.657 C174.555,223.657 172.374,223.885 169.64,224.341 C166.71,224.731 164.529,224.927 163.097,224.927 C162.316,224.927 161.925,224.536 161.925,223.755 C161.925,222.974 162.316,222.583 163.097,222.583 C165.115,222.583 166.873,221.671 168.37,219.849 C169.737,217.961 170.421,215.747 170.421,213.208 L170.421,212.427 L153.722,212.427 C152.615,212.427 151.834,212.166 151.378,211.645 C150.857,211.255 150.597,210.734 150.597,210.083 C150.597,209.888 151.085,209.204 152.062,208.032 C153.168,206.73 154.34,205.135 155.577,203.247 C157.01,201.033 158.377,198.755 159.679,196.411 C161.111,193.742 162.25,190.682 163.097,187.231 C164.073,183.716 164.562,180.135 164.562,176.489 C164.562,175.447 165.017,174.927 165.929,174.927 C166.124,174.927 166.547,175.024 167.198,175.22 C167.394,175.285 167.801,175.382 168.419,175.513 C169.038,175.643 169.542,175.773 169.933,175.903 C171.105,176.099 172.211,176.196 173.253,176.196"/>
<path class="TimeSig" d="M173.253,226.371 C175.206,226.371 176.866,226.143 178.234,225.688 C179.601,225.232 180.48,225.004 180.87,225.004 C181.326,225.004 181.684,225.134 181.944,225.395 C182.14,225.59 182.27,225.818 182.335,226.078 C182.335,226.208 182.27,226.404 182.14,226.664 L153.722,259.672 L170.421,259.672 L170.421,246.586 C170.421,245.74 170.649,245.024 171.105,244.438 C171.886,243.787 172.537,243.396 173.058,243.266 C173.904,242.875 174.946,241.964 176.183,240.531 C177.224,239.36 178.461,237.309 179.894,234.379 C180.089,233.988 180.382,233.793 180.773,233.793 C181.554,233.793 182.01,234.249 182.14,235.16 L182.14,259.672 L189.269,259.672 C190.18,259.672 190.701,260.16 190.831,261.137 C190.831,262.113 190.31,262.602 189.269,262.602 L182.14,262.602 L182.14,263.383 C182.14,265.987 182.791,268.201 184.093,270.024 C185.59,271.846 187.348,272.758 189.366,272.758 C190.148,272.758 190.538,273.149 190.538,273.93 C190.538,274.711 190.148,275.102 189.366,275.102 C187.999,275.102 185.786,274.906 182.726,274.516 C179.926,274.06 177.745,273.832 176.183,273.832 C174.555,273.832 172.374,274.06 169.64,274.516 C166.71,274.906 164.529,275.102 163.097,275.102 C162.316,275.102 161.925,274.711 161.925,273.93 C161.925,273.149 162.316,272.758 163.097,272.758 C165.115,272.758 166.873,271.846 168.37,270.024 C169.737,268.136 170.421,265.922 170.421,263.383 L170.421,262.602 L153.722,262.602 C152.615,262.602 151.834,262.341 151.378,261.82 C150.857,261.43 150.597,260.909 150.597,260.258 C150.597,260.063 151.085,259.379 152.062,258.207 C153.168,256.905 154.34,255.31 155.577,253.422 C157.01,251.208 158.377,248.93 159.679,246.586 C161.111,243.917 162.25,240.857 163.097,237.406 C164.073,233.891 164.562,230.31 164.562,226.664 C164.562,225.623 165.017,225.102 165.929,225.102 C166.124,225.102 166.547,225.199 167.198,225.395 C167.394,225.46 167.801,225.557 168.419,225.688 C169.038,225.818 169.542,225.948 169.933,226.078 C171.105,226.274 172.211,226.371 173.253,226.371"/>
</svg>
