<?xml version="1.0" encoding="UTF-8" standalone="no"?>
<svg width="1417.32px" height="566.929px" viewBox="0 0 1417.32 566.929"
 xmlns="http://www.w3.org/2000/svg" xmlns:xlink="http://www.w3.org/1999/xlink" version="1.2" baseProfile="tiny">
<title>Senza titolo-2</title>
<desc>Generated by MuseScore 3.3.4</desc>
<polyline class="StaffLines" fill="none" stroke="#000000" stroke-width="2.00" stroke-linejoin="bevel" points="42.5197,217.531 1374.8,217.531"/>
<polyline class="StaffLines" fill="none" stroke="#000000" stroke-width="2.00" stroke-linejoin="bevel" points="42.5197,242.532 1374.8,242.532"/>
<polyline class="StaffLines" fill="none" stroke="#000000" stroke-width="2.00" stroke-linejoin="bevel" points="42.5197,267.534 1374.8,267.534"/>
<polyline class="StaffLines" fill="none" stroke="#000000" stroke-width="2.00" stroke-linejoin="bevel" points="42.5197,292.535 1374.8,292.535"/>
<polyline class="StaffLines" fill="none" stroke="#000000" stroke-width="2.00" stroke-linejoin="bevel" points="42.5197,317.537 1374.8,317.537"/>
<polyline class="BarLine" fill="none" stroke="#000000" stroke-width="4.00" stroke-linejoin="bevel" points="426.138,216.531 426.138,318.537"/>
<polyline class="BarLine" fill="none" stroke="#000000" stroke-width="4.00" stroke-linejoin="bevel" points="660.06,216.531 660.06,318.537"/>
<polyline class="BarLine" fill="none" stroke="#000000" stroke-width="4.00" stroke-linejoin="bevel" points="895.642,216.531 895.642,318.537"/>
<polyline class="BarLine" fill="none" stroke="#000000" stroke-width="4.00" stroke-linejoin="bevel" points="1129.56,216.531 1129.56,318.537"/>
<polyline class="BarLine" fill="none" stroke="#000000" stroke-width="4.00" stroke-linejoin="bevel" points="1350.3,216.531 1350.3,318.537"/>
<polyline class="BarLine" fill="none" stroke="#000000" stroke-width="12.50" stroke-linejoin="bevel" points="1368.55,216.531 1368.55,318.537"/>
<path class="Note" d="M262.188,243.803 C259.845,243.803 258.152,244.616 257.11,246.244 C255.938,247.807 255.352,249.922 255.352,252.592 C255.352,255.652 256.166,258.288 257.794,260.502 C259.421,262.65 261.212,264.148 263.165,264.994 C264.923,265.84 266.778,266.264 268.731,266.264 C271.01,266.264 272.735,265.45 273.907,263.822 C275.014,262.195 275.567,260.079 275.567,257.474 C275.567,254.415 274.754,251.778 273.126,249.564 C271.498,247.481 269.741,245.984 267.852,245.072 C265.964,244.226 264.076,243.803 262.188,243.803 M265.509,241.264 C272.54,241.264 278.399,242.631 283.087,245.365 C287.839,248.099 290.216,251.322 290.216,255.033 C290.216,259.004 287.774,262.26 282.892,264.799 C278.009,267.468 272.214,268.803 265.509,268.803 C258.608,268.803 252.748,267.435 247.931,264.701 C243.113,261.967 240.704,258.744 240.704,255.033 C240.704,251.062 243.178,247.807 248.126,245.267 C253.009,242.598 258.803,241.264 265.509,241.264"/>
<path class="Note" d="M482.926,256.303 C480.582,256.303 478.889,257.117 477.848,258.745 C476.676,260.307 476.09,262.423 476.09,265.092 C476.09,268.152 476.904,270.789 478.531,273.003 C480.159,275.151 481.949,276.648 483.902,277.495 C485.66,278.341 487.516,278.764 489.469,278.764 C491.747,278.764 493.473,277.951 494.645,276.323 C495.751,274.695 496.305,272.579 496.305,269.975 C496.305,266.915 495.491,264.279 493.863,262.065 C492.236,259.982 490.478,258.484 488.59,257.573 C486.702,256.727 484.814,256.303 482.926,256.303 M486.246,253.764 C493.277,253.764 499.137,255.132 503.824,257.866 C508.577,260.6 510.953,263.823 510.953,267.534 C510.953,271.505 508.512,274.76 503.629,277.299 C498.746,279.969 492.952,281.303 486.246,281.303 C479.345,281.303 473.486,279.936 468.668,277.202 C463.85,274.467 461.441,271.245 461.441,267.534 C461.441,263.563 463.915,260.307 468.863,257.768 C473.746,255.099 479.54,253.764 486.246,253.764"/>
<path class="Note" d="M708.546,268.804 C706.203,268.804 704.51,269.618 703.468,271.246 C702.296,272.808 701.71,274.924 701.71,277.593 C701.71,280.653 702.524,283.29 704.152,285.503 C705.779,287.652 707.57,289.149 709.523,289.996 C711.281,290.842 713.136,291.265 715.089,291.265 C717.368,291.265 719.093,290.451 720.265,288.824 C721.372,287.196 721.925,285.08 721.925,282.476 C721.925,279.416 721.111,276.779 719.484,274.566 C717.856,272.483 716.098,270.985 714.21,270.074 C712.322,269.227 710.434,268.804 708.546,268.804 M711.867,266.265 C718.898,266.265 724.757,267.632 729.445,270.367 C734.197,273.101 736.574,276.324 736.574,280.035 C736.574,284.006 734.132,287.261 729.249,289.8 C724.367,292.47 718.572,293.804 711.867,293.804 C704.966,293.804 699.106,292.437 694.289,289.703 C689.471,286.968 687.062,283.746 687.062,280.035 C687.062,276.063 689.536,272.808 694.484,270.269 C699.367,267.6 705.161,266.265 711.867,266.265"/>
<path class="Note" d="M952.43,256.303 C950.086,256.303 948.393,257.117 947.352,258.745 C946.18,260.307 945.594,262.423 945.594,265.092 C945.594,268.152 946.408,270.789 948.035,273.003 C949.663,275.151 951.453,276.648 953.406,277.495 C955.164,278.341 957.02,278.764 958.973,278.764 C961.251,278.764 962.977,277.951 964.148,276.323 C965.255,274.695 965.809,272.579 965.809,269.975 C965.809,266.915 964.995,264.279 963.367,262.065 C961.74,259.982 959.982,258.484 958.094,257.573 C956.206,256.727 954.318,256.303 952.43,256.303 M955.75,253.764 C962.781,253.764 968.641,255.132 973.328,257.866 C978.081,260.6 980.457,263.823 980.457,267.534 C980.457,271.505 978.016,274.76 973.133,277.299 C968.25,279.969 962.456,281.303 955.75,281.303 C948.849,281.303 942.99,279.936 938.172,277.202 C933.354,274.467 930.945,271.245 930.945,267.534 C930.945,263.563 933.419,260.307 938.367,257.768 C943.25,255.099 949.044,253.764 955.75,253.764"/>
<path class="Note" d="M1186.35,243.803 C1184.01,243.803 1182.32,244.616 1181.27,246.244 C1180.1,247.807 1179.52,249.922 1179.52,252.592 C1179.52,255.652 1180.33,258.288 1181.96,260.502 C1183.58,262.65 1185.38,264.148 1187.33,264.994 C1189.09,265.84 1190.94,266.264 1192.89,266.264 C1195.17,266.264 1196.9,265.45 1198.07,263.822 C1199.18,262.195 1199.73,260.079 1199.73,257.474 C1199.73,254.415 1198.92,251.778 1197.29,249.564 C1195.66,247.481 1193.9,245.984 1192.02,245.072 C1190.13,244.226 1188.24,243.803 1186.35,243.803 M1189.67,241.264 C1196.7,241.264 1202.56,242.631 1207.25,245.365 C1212,248.099 1214.38,251.322 1214.38,255.033 C1214.38,259.004 1211.94,262.26 1207.05,264.799 C1202.17,267.468 1196.38,268.803 1189.67,268.803 C1182.77,268.803 1176.91,267.435 1172.09,264.701 C1167.28,261.967 1164.87,258.744 1164.87,255.033 C1164.87,251.062 1167.34,247.807 1172.29,245.267 C1177.17,242.598 1182.97,241.264 1189.67,241.264"/>
<path class="Clef" d="M99.2397,266.949 C99.2397,266.949 99.435,266.949 99.8256,266.949 C100.086,266.884 100.314,266.852 100.509,266.852 C107.801,266.852 113.79,269.423 118.478,274.567 C123.165,279.645 125.509,285.569 125.509,292.34 C125.509,300.739 122.026,307.574 115.06,312.848 C113.237,314.28 110.861,315.452 107.931,316.364 C108.257,320.595 108.419,324.013 108.419,326.617 C108.419,327.138 108.354,329.026 108.224,332.282 C107.964,338.336 105.88,343.577 101.974,348.004 C98.198,352.366 93.5105,354.547 87.9116,354.547 C82.6381,354.547 78.1459,352.692 74.435,348.981 C70.7241,345.205 68.8686,340.647 68.8686,335.309 C68.8686,332.509 69.9428,330.133 72.0913,328.18 C74.3048,326.227 76.8764,325.25 79.8061,325.25 C82.4103,325.25 84.5913,326.259 86.3491,328.278 C88.172,330.166 89.0834,332.509 89.0834,335.309 C89.0834,337.848 88.172,340.029 86.3491,341.852 C84.5262,343.675 82.3452,344.586 79.8061,344.586 C78.7644,344.586 77.7553,344.391 76.7788,344 C79.6433,348.232 83.4519,350.348 88.2045,350.348 C92.6967,350.348 96.3751,348.525 99.2397,344.879 C102.234,341.103 103.862,336.709 104.123,331.696 C104.253,328.571 104.318,326.78 104.318,326.324 C104.318,322.679 104.188,319.684 103.927,317.34 C100.672,317.861 97.7749,318.121 95.2358,318.121 C86.1863,318.121 78.4715,314.541 72.0913,307.379 C65.8413,300.153 62.7163,291.559 62.7163,281.598 C62.7163,279.515 62.9116,277.399 63.3022,275.25 C63.6928,273.492 64.1811,271.572 64.767,269.489 C65.0926,268.317 65.9715,266.429 67.4038,263.824 C67.9246,263.043 68.5105,262.067 69.1616,260.895 C69.8126,259.723 70.2683,258.942 70.5288,258.551 C71.1798,257.249 72.4493,255.491 74.3374,253.278 C74.8582,252.692 75.3953,252.041 75.9487,251.324 C76.5021,250.608 76.9741,250.022 77.3647,249.567 C77.7553,249.111 78.0483,248.753 78.2436,248.492 C78.4389,248.232 79.9038,246.507 82.6381,243.317 C83.2892,242.666 83.9239,241.966 84.5424,241.217 C85.1609,240.468 85.6655,239.882 86.0561,239.459 C86.4467,239.036 86.7397,238.727 86.935,238.532 C84.5913,230.784 83.1264,224.599 82.5405,219.977 C82.0847,216.266 81.8569,211.188 81.8569,204.742 C81.8569,199.078 83.159,193.772 85.7631,188.824 C88.3022,183.681 91.8504,179.482 96.4077,176.227 C96.6681,176.032 96.9936,175.934 97.3842,175.934 C97.84,175.934 98.1655,176.032 98.3608,176.227 C101.876,180.459 104.904,185.96 107.443,192.731 C110.047,199.502 111.349,205.654 111.349,211.188 C111.349,217.438 109.852,223.297 106.857,228.766 C103.471,234.56 99.1095,240.55 93.7709,246.735 C95.1381,251.032 96.961,257.77 99.2397,266.949 M107.54,312.36 C110.926,311.123 113.563,309.007 115.451,306.012 C117.534,303.147 118.576,299.925 118.576,296.344 C118.576,291.722 117.013,287.62 113.888,284.039 C110.698,280.328 106.629,278.245 101.681,277.789 C104.481,291.526 106.434,303.05 107.54,312.36 M69.7475,289.801 C69.7475,296.246 72.3517,301.91 77.56,306.793 C82.8985,311.546 88.8881,313.922 95.5288,313.922 C98.2631,313.922 100.932,313.727 103.537,313.336 C102.495,303.44 100.444,291.591 97.3842,277.789 C93.6733,278.18 90.711,279.482 88.4975,281.696 C86.3491,283.974 85.2749,286.546 85.2749,289.41 C85.2749,294.358 87.9116,298.362 93.185,301.422 C93.6407,301.878 93.8686,302.366 93.8686,302.887 C93.8686,303.408 93.6407,303.896 93.185,304.352 C92.7944,304.808 92.3061,305.035 91.7202,305.035 C91.6551,305.035 91.3621,304.97 90.8413,304.84 C87.1303,302.822 84.2657,300.218 82.2475,297.028 C80.3595,293.642 79.4155,290.224 79.4155,286.774 C79.4155,282.282 80.8152,278.213 83.6147,274.567 C86.5444,270.921 90.353,268.577 95.0405,267.535 C93.2176,260.244 91.7202,254.547 90.5483,250.446 C89.5066,251.617 88.2534,253.033 86.7885,254.694 C85.3237,256.354 84.461,257.347 84.2006,257.672 C81.8569,260.732 80.0665,263.108 78.8295,264.801 C76.616,267.861 74.9884,270.498 73.9467,272.711 C72.84,275.185 71.8634,277.887 71.017,280.817 C70.1707,283.616 69.7475,286.611 69.7475,289.801 M102.365,190.485 C97.4819,192.894 93.6407,196.344 90.8413,200.836 C87.9767,205.459 86.5444,210.439 86.5444,215.778 C86.5444,220.465 87.7163,226.78 90.06,234.723 C94.7475,229.059 98.2631,223.818 100.607,219 C103.081,213.922 104.318,208.616 104.318,203.082 C104.318,198.916 103.667,194.716 102.365,190.485"/>
<path class="TimeSig" d="M173.253,218.716 C175.206,218.716 176.866,218.488 178.234,218.032 C179.601,217.577 180.48,217.349 180.87,217.349 C181.326,217.349 181.684,217.479 181.944,217.739 C182.14,217.935 182.27,218.162 182.335,218.423 C182.335,218.553 182.27,218.748 182.14,219.009 L153.722,252.017 L170.421,252.017 L170.421,238.931 C170.421,238.084 170.649,237.368 171.105,236.782 C171.886,236.131 172.537,235.741 173.058,235.61 C173.904,235.22 174.946,234.308 176.183,232.876 C177.224,231.704 178.461,229.653 179.894,226.724 C180.089,226.333 180.382,226.138 180.773,226.138 C181.554,226.138 182.01,226.593 182.14,227.505 L182.14,252.017 L189.269,252.017 C190.18,252.017 190.701,252.505 190.831,253.481 C190.831,254.458 190.31,254.946 189.269,254.946 L182.14,254.946 L182.14,255.728 C182.14,258.332 182.791,260.545 184.093,262.368 C185.59,264.191 187.348,265.103 189.366,265.103 C190.148,265.103 190.538,265.493 190.538,266.274 C190.538,267.056 190.148,267.446 189.366,267.446 C187.999,267.446 185.786,267.251 182.726,266.86 C179.926,266.405 177.745,266.177 176.183,266.177 C174.555,266.177 172.374,266.405 169.64,266.86 C166.71,267.251 164.529,267.446 163.097,267.446 C162.316,267.446 161.925,267.056 161.925,266.274 C161.925,265.493 162.316,265.103 163.097,265.103 C165.115,265.103 166.873,264.191 168.37,262.368 C169.737,260.48 170.421,258.267 170.421,255.728 L170.421,254.946 L153.722,254.946 C152.615,254.946 151.834,254.686 151.378,254.165 C150.857,253.774 150.597,253.254 150.597,252.603 C150.597,252.407 151.085,251.724 152.062,250.552 C153.168,249.25 154.34,247.655 155.577,245.767 C157.01,243.553 158.377,241.274 159.679,238.931 C161.111,236.261 162.25,233.202 163.097,229.751 C164.073,226.235 164.562,222.655 164.562,219.009 C164.562,217.967 165.017,217.446 165.929,217.446 C166.124,217.446 166.547,217.544 167.198,217.739 C167.394,217.804 167.801,217.902 168.419,218.032 C169.038,218.162 169.542,218.293 169.933,218.423 C171.105,218.618 172.211,218.716 173.253,218.716"/>
<path class="TimeSig" d="M173.253,268.891 C175.206,268.891 176.866,268.663 178.234,268.207 C179.601,267.752 180.48,267.524 180.87,267.524 C181.326,267.524 181.684,267.654 181.944,267.914 C182.14,268.11 182.27,268.338 182.335,268.598 C182.335,268.728 182.27,268.923 182.14,269.184 L153.722,302.192 L170.421,302.192 L170.421,289.106 C170.421,288.259 170.649,287.543 171.105,286.957 C171.886,286.306 172.537,285.916 173.058,285.785 C173.904,285.395 174.946,284.483 176.183,283.051 C177.224,281.879 178.461,279.828 179.894,276.899 C180.089,276.508 180.382,276.313 180.773,276.313 C181.554,276.313 182.01,276.769 182.14,277.68 L182.14,302.192 L189.269,302.192 C190.18,302.192 190.701,302.68 190.831,303.657 C190.831,304.633 190.31,305.121 189.269,305.121 L182.14,305.121 L182.14,305.903 C182.14,308.507 182.791,310.72 184.093,312.543 C185.59,314.366 187.348,315.278 189.366,315.278 C190.148,315.278 190.538,315.668 190.538,316.45 C190.538,317.231 190.148,317.621 189.366,317.621 C187.999,317.621 185.786,317.426 182.726,317.035 C179.926,316.58 177.745,316.352 176.183,316.352 C174.555,316.352 172.374,316.58 169.64,317.035 C166.71,317.426 164.529,317.621 163.097,317.621 C162.316,317.621 161.925,317.231 161.925,316.45 C161.925,315.668 162.316,315.278 163.097,315.278 C165.115,315.278 166.873,314.366 168.37,312.543 C169.737,310.655 170.421,308.442 170.421,305.903 L170.421,305.121 L153.722,305.121 C152.615,305.121 151.834,304.861 151.378,304.34 C150.857,303.95 150.597,303.429 150.597,302.778 C150.597,302.582 151.085,301.899 152.062,300.727 C153.168,299.425 154.34,297.83 155.577,295.942 C157.01,293.728 158.377,291.45 159.679,289.106 C161.111,286.436 162.25,283.377 163.097,279.926 C164.073,276.41 164.562,272.83 164.562,269.184 C164.562,268.142 165.017,267.621 165.929,267.621 C166.124,267.621 166.547,267.719 167.198,267.914 C167.394,267.979 167.801,268.077 168.419,268.207 C169.038,268.338 169.542,268.468 169.933,268.598 C171.105,268.793 172.211,268.891 173.253,268.891"/>
</svg>
