<?xml version="1.0" encoding="UTF-8" standalone="no"?>
<svg width="1133.86px" height="738px" viewBox="0 0 1133.86 738"
 xmlns="http://www.w3.org/2000/svg" xmlns:xlink="http://www.w3.org/1999/xlink" version="1.2" baseProfile="tiny">
<title>Senza titolo-3</title>
<desc>Generated by MuseScore 3.3.4</desc>
<polyline class="StaffLines" fill="none" stroke="#000000" stroke-width="2.00" stroke-linejoin="bevel" points="123.366,175.011 1062.99,175.011"/>
<polyline class="StaffLines" fill="none" stroke="#000000" stroke-width="2.00" stroke-linejoin="bevel" points="123.366,200.013 1062.99,200.013"/>
<polyline class="StaffLines" fill="none" stroke="#000000" stroke-width="2.00" stroke-linejoin="bevel" points="123.366,225.014 1062.99,225.014"/>
<polyline class="StaffLines" fill="none" stroke="#000000" stroke-width="2.00" stroke-linejoin="bevel" points="123.366,250.016 1062.99,250.016"/>
<polyline class="StaffLines" fill="none" stroke="#000000" stroke-width="2.00" stroke-linejoin="bevel" points="123.366,275.017 1062.99,275.017"/>
<polyline class="StaffLines" fill="none" stroke="#000000" stroke-width="2.00" stroke-linejoin="bevel" points="123.366,437.528 1062.99,437.528"/>
<polyline class="StaffLines" fill="none" stroke="#000000" stroke-width="2.00" stroke-linejoin="bevel" points="123.366,462.529 1062.99,462.529"/>
<polyline class="StaffLines" fill="none" stroke="#000000" stroke-width="2.00" stroke-linejoin="bevel" points="123.366,487.531 1062.99,487.531"/>
<polyline class="StaffLines" fill="none" stroke="#000000" stroke-width="2.00" stroke-linejoin="bevel" points="123.366,512.532 1062.99,512.532"/>
<polyline class="StaffLines" fill="none" stroke="#000000" stroke-width="2.00" stroke-linejoin="bevel" points="123.366,537.534 1062.99,537.534"/>
<polyline class="BarLine" fill="none" stroke="#000000" stroke-width="4.00" stroke-linejoin="bevel" points="125.366,436.527 125.366,538.534"/>
<polyline class="BarLine" fill="none" stroke="#000000" stroke-width="4.00" stroke-linejoin="bevel" points="613.782,436.527 613.782,538.534"/>
<polyline class="BarLine" fill="none" stroke="#000000" stroke-width="4.00" stroke-linejoin="bevel" points="847.363,436.527 847.363,538.534"/>
<polyline class="BarLine" fill="none" stroke="#000000" stroke-width="4.00" stroke-linejoin="bevel" points="1038.49,436.527 1038.49,538.534"/>
<polyline class="BarLine" fill="none" stroke="#000000" stroke-width="12.50" stroke-linejoin="bevel" points="1056.74,436.527 1056.74,538.534"/>
<polyline class="BarLine" fill="none" stroke="#000000" stroke-width="4.00" stroke-linejoin="bevel" points="125.366,174.011 125.366,437.528"/>
<polyline class="BarLine" fill="none" stroke="#000000" stroke-width="4.00" stroke-linejoin="bevel" points="613.782,174.011 613.782,437.528"/>
<polyline class="BarLine" fill="none" stroke="#000000" stroke-width="4.00" stroke-linejoin="bevel" points="847.363,174.011 847.363,437.528"/>
<polyline class="BarLine" fill="none" stroke="#000000" stroke-width="4.00" stroke-linejoin="bevel" points="1038.49,174.011 1038.49,437.528"/>
<polyline class="BarLine" fill="none" stroke="#000000" stroke-width="12.50" stroke-linejoin="bevel" points="1056.74,174.011 1056.74,437.528"/>
<polyline class="LedgerLine" fill="none" stroke="#000000" stroke-width="4.00" stroke-linecap="square" stroke-linejoin="bevel" points="409.087,412.526 473.607,412.526"/>
<polyline class="Stem" fill="none" stroke="#000000" stroke-width="3.25" stroke-linecap="round" stroke-linejoin="bevel" points="457.082,271.177 457.082,187.512"/>
<polyline class="Stem" fill="none" stroke="#000000" stroke-width="3.25" stroke-linecap="round" stroke-linejoin="bevel" points="550.529,258.676 550.529,175.011"/>
<polyline class="Stem" fill="none" stroke="#000000" stroke-width="3.25" stroke-linecap="round" stroke-linejoin="bevel" points="689.58,246.176 689.58,165.635"/>
<polyline class="Stem" fill="none" stroke="#000000" stroke-width="3.25" stroke-linecap="round" stroke-linejoin="bevel" points="752.097,228.934 752.097,303.144"/>
<path class="Note" d="M438.072,401.296 C435.728,401.296 434.036,402.109 432.994,403.737 C431.822,405.299 431.236,407.415 431.236,410.085 C431.236,413.144 432.05,415.781 433.677,417.995 C435.305,420.143 437.095,421.641 439.049,422.487 C440.806,423.333 442.662,423.756 444.615,423.756 C446.894,423.756 448.619,422.943 449.791,421.315 C450.898,419.687 451.451,417.572 451.451,414.967 C451.451,411.907 450.637,409.271 449.01,407.057 C447.382,404.974 445.624,403.477 443.736,402.565 C441.848,401.719 439.96,401.296 438.072,401.296 M441.392,398.756 C448.424,398.756 454.283,400.124 458.97,402.858 C463.723,405.592 466.099,408.815 466.099,412.526 C466.099,416.497 463.658,419.753 458.775,422.292 C453.892,424.961 448.098,426.296 441.392,426.296 C434.491,426.296 428.632,424.928 423.814,422.194 C418.996,419.46 416.588,416.237 416.588,412.526 C416.588,408.555 419.062,405.299 424.01,402.76 C428.892,400.091 434.687,398.756 441.392,398.756"/>
<path class="Note" d="M670.57,413.796 C668.226,413.796 666.533,414.61 665.492,416.238 C664.32,417.8 663.734,419.916 663.734,422.585 C663.734,425.645 664.548,428.282 666.175,430.496 C667.803,432.644 669.593,434.141 671.546,434.988 C673.304,435.834 675.159,436.257 677.113,436.257 C679.391,436.257 681.117,435.443 682.288,433.816 C683.395,432.188 683.949,430.072 683.949,427.468 C683.949,424.408 683.135,421.772 681.507,419.558 C679.88,417.475 678.122,415.977 676.234,415.066 C674.346,414.219 672.458,413.796 670.57,413.796 M673.89,411.257 C680.921,411.257 686.781,412.624 691.468,415.359 C696.221,418.093 698.597,421.316 698.597,425.027 C698.597,428.998 696.156,432.253 691.273,434.792 C686.39,437.462 680.596,438.796 673.89,438.796 C666.989,438.796 661.13,437.429 656.312,434.695 C651.494,431.96 649.085,428.738 649.085,425.027 C649.085,421.055 651.559,417.8 656.507,415.261 C661.39,412.592 667.184,411.257 673.89,411.257"/>
<path class="Note" d="M904.15,426.297 C901.806,426.297 900.114,427.111 899.072,428.738 C897.9,430.301 897.314,432.417 897.314,435.086 C897.314,438.146 898.128,440.783 899.756,442.996 C901.383,445.145 903.174,446.642 905.127,447.488 C906.885,448.335 908.74,448.758 910.693,448.758 C912.972,448.758 914.697,447.944 915.869,446.317 C916.976,444.689 917.529,442.573 917.529,439.969 C917.529,436.909 916.715,434.272 915.088,432.059 C913.46,429.975 911.702,428.478 909.814,427.567 C907.926,426.72 906.038,426.297 904.15,426.297 M907.47,423.758 C914.502,423.758 920.361,425.125 925.049,427.86 C929.801,430.594 932.177,433.817 932.177,437.528 C932.177,441.499 929.736,444.754 924.853,447.293 C919.97,449.962 914.176,451.297 907.47,451.297 C900.569,451.297 894.71,449.93 889.892,447.196 C885.075,444.461 882.666,441.238 882.666,437.528 C882.666,433.556 885.14,430.301 890.088,427.762 C894.97,425.093 900.765,423.758 907.47,423.758"/>
<path class="Note" d="M455.53,268.474 C455.53,267.368 455.106,266.424 454.26,265.642 C453.414,264.796 452.437,264.373 451.33,264.373 C449.377,264.373 445.438,266.326 439.514,270.232 C433.394,274.204 429.651,277.036 428.283,278.728 C427.567,279.64 427.209,280.584 427.209,281.56 C427.209,282.667 427.632,283.611 428.479,284.392 C429.26,285.239 430.237,285.662 431.408,285.662 C433.296,285.662 437.268,283.709 443.322,279.802 C449.312,275.896 453.023,273.064 454.455,271.306 C455.171,270.46 455.53,269.516 455.53,268.474 M450.354,261.248 C455.953,261.248 458.752,263.657 458.752,268.474 C458.752,270.818 458.069,273.552 456.701,276.677 C455.334,279.737 453.511,282.081 451.233,283.709 C446.22,287.094 439.937,288.787 432.385,288.787 C426.786,288.787 423.987,286.378 423.987,281.56 C423.987,279.412 424.67,276.71 426.037,273.455 C427.339,270.33 429.162,267.954 431.506,266.326 C436.519,262.94 442.802,261.248 450.354,261.248"/>
<path class="Note" d="M548.976,255.974 C548.976,254.867 548.553,253.923 547.707,253.142 C546.86,252.295 545.884,251.872 544.777,251.872 C542.824,251.872 538.885,253.825 532.96,257.731 C526.841,261.703 523.097,264.535 521.73,266.227 C521.014,267.139 520.656,268.083 520.656,269.06 C520.656,270.166 521.079,271.11 521.925,271.892 C522.707,272.738 523.683,273.161 524.855,273.161 C526.743,273.161 530.714,271.208 536.769,267.302 C542.759,263.395 546.47,260.563 547.902,258.806 C548.618,257.959 548.976,257.015 548.976,255.974 M543.8,248.747 C549.399,248.747 552.199,251.156 552.199,255.974 C552.199,258.317 551.515,261.052 550.148,264.177 C548.781,267.237 546.958,269.58 544.679,271.208 C539.666,274.593 533.384,276.286 525.832,276.286 C520.233,276.286 517.433,273.877 517.433,269.06 C517.433,266.911 518.117,264.209 519.484,260.954 C520.786,257.829 522.609,255.453 524.953,253.825 C529.966,250.44 536.248,248.747 543.8,248.747"/>
<path class="Note" d="M688.027,243.473 C688.027,242.366 687.604,241.422 686.758,240.641 C685.911,239.794 684.935,239.371 683.828,239.371 C681.875,239.371 677.936,241.324 672.012,245.231 C665.892,249.202 662.148,252.034 660.781,253.727 C660.065,254.638 659.707,255.582 659.707,256.559 C659.707,257.665 660.13,258.609 660.976,259.391 C661.758,260.237 662.734,260.66 663.906,260.66 C665.794,260.66 669.765,258.707 675.82,254.801 C681.81,250.895 685.521,248.063 686.953,246.305 C687.669,245.458 688.027,244.514 688.027,243.473 M682.851,236.246 C688.45,236.246 691.25,238.655 691.25,243.473 C691.25,245.817 690.566,248.551 689.199,251.676 C687.832,254.736 686.009,257.08 683.73,258.707 C678.717,262.093 672.435,263.785 664.883,263.785 C659.284,263.785 656.484,261.376 656.484,256.559 C656.484,254.41 657.168,251.708 658.535,248.453 C659.837,245.328 661.66,242.952 664.004,241.324 C669.017,237.939 675.299,236.246 682.851,236.246"/>
<path class="Note" d="M782.015,218.471 C782.015,217.364 781.592,216.42 780.746,215.639 C779.899,214.793 778.923,214.37 777.816,214.37 C775.863,214.37 771.924,216.323 766,220.229 C759.88,224.2 756.136,227.032 754.769,228.725 C754.053,229.637 753.695,230.581 753.695,231.557 C753.695,232.664 754.118,233.608 754.964,234.389 C755.746,235.236 756.722,235.659 757.894,235.659 C759.782,235.659 763.753,233.706 769.808,229.799 C775.798,225.893 779.509,223.061 780.941,221.303 C781.657,220.457 782.015,219.513 782.015,218.471 M776.839,211.245 C782.438,211.245 785.238,213.653 785.238,218.471 C785.238,220.815 784.554,223.549 783.187,226.674 C781.82,229.734 779.997,232.078 777.718,233.706 C772.705,237.091 766.423,238.784 758.871,238.784 C753.272,238.784 750.472,236.375 750.472,231.557 C750.472,229.409 751.156,226.707 752.523,223.452 C753.825,220.327 755.648,217.95 757.992,216.323 C763.005,212.937 769.287,211.245 776.839,211.245"/>
<path class="Note" d="M904.15,201.283 C901.806,201.283 900.114,202.097 899.072,203.724 C897.9,205.287 897.314,207.403 897.314,210.072 C897.314,213.132 898.128,215.769 899.756,217.982 C901.383,220.131 903.174,221.628 905.127,222.474 C906.885,223.321 908.74,223.744 910.693,223.744 C912.972,223.744 914.697,222.93 915.869,221.302 C916.976,219.675 917.529,217.559 917.529,214.955 C917.529,211.895 916.715,209.258 915.088,207.045 C913.46,204.961 911.702,203.464 909.814,202.552 C907.926,201.706 906.038,201.283 904.15,201.283 M907.47,198.744 C914.502,198.744 920.361,200.111 925.049,202.845 C929.801,205.58 932.177,208.802 932.177,212.513 C932.177,216.485 929.736,219.74 924.853,222.279 C919.97,224.948 914.176,226.283 907.47,226.283 C900.569,226.283 894.71,224.916 889.892,222.181 C885.075,219.447 882.666,216.224 882.666,212.513 C882.666,208.542 885.14,205.287 890.088,202.748 C894.97,200.078 900.765,198.744 907.47,198.744"/>
<path class="Clef" d="M205.77,453.642 C204.793,452.666 204.305,451.461 204.305,450.029 C204.305,448.597 204.793,447.392 205.77,446.416 C206.747,445.439 207.951,444.951 209.383,444.951 C210.816,444.951 212.02,445.439 212.997,446.416 C213.973,447.392 214.461,448.597 214.461,450.029 C214.461,451.461 213.973,452.666 212.997,453.642 C212.02,454.619 210.816,455.107 209.383,455.107 C207.951,455.107 206.747,454.619 205.77,453.642 M205.77,478.642 C204.793,477.666 204.305,476.461 204.305,475.029 C204.305,473.597 204.793,472.392 205.77,471.416 C206.747,470.439 207.951,469.951 209.383,469.951 C210.816,469.951 212.02,470.439 212.997,471.416 C213.973,472.392 214.461,473.597 214.461,475.029 C214.461,476.461 213.973,477.666 212.997,478.642 C212.02,479.619 210.816,480.107 209.383,480.107 C207.951,480.107 206.747,479.619 205.77,478.642 M171.883,436.26 C180.542,436.26 187.638,438.441 193.172,442.803 C198.511,447.36 201.18,453.545 201.18,461.357 C201.18,466.631 200.138,471.448 198.055,475.81 C196.102,480.368 193.53,484.404 190.34,487.92 C187.085,491.5 183.146,494.886 178.524,498.076 C174.032,501.201 169.409,504 164.657,506.474 C154.956,511.357 149.618,513.799 148.641,513.799 C147.795,513.799 147.372,513.375 147.372,512.529 C147.372,512.204 147.502,511.911 147.762,511.65 C151.082,509.697 155.151,507.191 159.969,504.131 C163.094,502.112 166.74,499.313 170.907,495.732 C174.943,492.347 178.068,489.157 180.282,486.162 C182.56,483.232 184.644,479.586 186.532,475.224 C188.159,470.862 188.973,466.566 188.973,462.334 C188.973,456.019 187.411,450.517 184.286,445.83 C181.161,441.142 177.026,438.799 171.883,438.799 C168.237,438.799 165.112,439.971 162.508,442.314 C159.709,444.723 157.691,447.75 156.454,451.396 C157.691,450.875 158.83,450.615 159.872,450.615 C162.606,450.615 164.95,451.592 166.903,453.545 C168.856,455.628 169.832,458.004 169.832,460.674 C169.832,463.473 168.888,465.98 167,468.193 C164.982,470.211 162.606,471.221 159.872,471.221 C156.942,471.221 154.305,470.211 151.961,468.193 C149.748,465.98 148.641,463.473 148.641,460.674 C148.641,453.968 150.92,448.239 155.477,443.486 C159.969,438.668 165.438,436.26 171.883,436.26"/>
<path class="Clef" d="M185.36,224.43 C185.36,224.43 185.555,224.43 185.946,224.43 C186.206,224.365 186.434,224.332 186.629,224.332 C193.921,224.332 199.911,226.904 204.598,232.047 C209.286,237.125 211.629,243.05 211.629,249.82 C211.629,258.219 208.146,265.055 201.18,270.328 C199.357,271.761 196.981,272.932 194.051,273.844 C194.377,278.076 194.54,281.494 194.54,284.098 C194.54,284.619 194.474,286.507 194.344,289.762 C194.084,295.817 192,301.057 188.094,305.484 C184.318,309.846 179.631,312.027 174.032,312.027 C168.758,312.027 164.266,310.172 160.555,306.461 C156.844,302.685 154.989,298.128 154.989,292.789 C154.989,289.99 156.063,287.613 158.211,285.66 C160.425,283.707 162.997,282.731 165.926,282.731 C168.53,282.731 170.711,283.74 172.469,285.758 C174.292,287.646 175.204,289.99 175.204,292.789 C175.204,295.328 174.292,297.509 172.469,299.332 C170.646,301.155 168.465,302.067 165.926,302.067 C164.885,302.067 163.875,301.871 162.899,301.481 C165.763,305.712 169.572,307.828 174.325,307.828 C178.817,307.828 182.495,306.005 185.36,302.359 C188.355,298.583 189.982,294.189 190.243,289.176 C190.373,286.051 190.438,284.261 190.438,283.805 C190.438,280.159 190.308,277.164 190.047,274.82 C186.792,275.341 183.895,275.602 181.356,275.602 C172.306,275.602 164.592,272.021 158.211,264.859 C151.961,257.633 148.836,249.039 148.836,239.078 C148.836,236.995 149.032,234.879 149.422,232.731 C149.813,230.973 150.301,229.052 150.887,226.969 C151.213,225.797 152.092,223.909 153.524,221.305 C154.045,220.524 154.631,219.547 155.282,218.375 C155.933,217.203 156.388,216.422 156.649,216.031 C157.3,214.729 158.569,212.971 160.457,210.758 C160.978,210.172 161.515,209.521 162.069,208.805 C162.622,208.089 163.094,207.503 163.485,207.047 C163.875,206.591 164.168,206.233 164.364,205.973 C164.559,205.712 166.024,203.987 168.758,200.797 C169.409,200.146 170.044,199.446 170.663,198.697 C171.281,197.949 171.786,197.363 172.176,196.94 C172.567,196.516 172.86,196.207 173.055,196.012 C170.711,188.264 169.247,182.08 168.661,177.457 C168.205,173.746 167.977,168.668 167.977,162.223 C167.977,156.559 169.279,151.253 171.883,146.305 C174.422,141.162 177.971,136.962 182.528,133.707 C182.788,133.512 183.114,133.414 183.504,133.414 C183.96,133.414 184.286,133.512 184.481,133.707 C187.997,137.939 191.024,143.44 193.563,150.211 C196.167,156.982 197.469,163.134 197.469,168.668 C197.469,174.918 195.972,180.777 192.977,186.246 C189.592,192.04 185.23,198.03 179.891,204.215 C181.258,208.512 183.081,215.25 185.36,224.43 M193.661,269.84 C197.046,268.603 199.683,266.487 201.571,263.492 C203.654,260.628 204.696,257.405 204.696,253.824 C204.696,249.202 203.133,245.1 200.008,241.52 C196.818,237.809 192.749,235.725 187.801,235.27 C190.601,249.007 192.554,260.53 193.661,269.84 M155.868,247.281 C155.868,253.727 158.472,259.391 163.68,264.274 C169.019,269.026 175.008,271.402 181.649,271.402 C184.383,271.402 187.053,271.207 189.657,270.817 C188.615,260.921 186.564,249.072 183.504,235.27 C179.793,235.66 176.831,236.962 174.618,239.176 C172.469,241.455 171.395,244.026 171.395,246.891 C171.395,251.839 174.032,255.843 179.305,258.902 C179.761,259.358 179.989,259.846 179.989,260.367 C179.989,260.888 179.761,261.376 179.305,261.832 C178.915,262.288 178.426,262.516 177.84,262.516 C177.775,262.516 177.482,262.451 176.961,262.32 C173.25,260.302 170.386,257.698 168.368,254.508 C166.48,251.123 165.536,247.705 165.536,244.254 C165.536,239.762 166.935,235.693 169.735,232.047 C172.665,228.401 176.473,226.057 181.161,225.016 C179.338,217.724 177.84,212.027 176.668,207.926 C175.627,209.098 174.374,210.514 172.909,212.174 C171.444,213.834 170.581,214.827 170.321,215.152 C167.977,218.212 166.187,220.589 164.95,222.281 C162.736,225.341 161.109,227.978 160.067,230.192 C158.96,232.665 157.984,235.367 157.137,238.297 C156.291,241.096 155.868,244.091 155.868,247.281 M188.485,147.965 C183.602,150.374 179.761,153.824 176.961,158.317 C174.097,162.939 172.665,167.919 172.665,173.258 C172.665,177.945 173.836,184.261 176.18,192.203 C180.868,186.539 184.383,181.298 186.727,176.481 C189.201,171.402 190.438,166.096 190.438,160.563 C190.438,156.396 189.787,152.197 188.485,147.965"/>
<path class="KeySig" d="M285.887,531.184 C285.887,532.421 285.268,533.039 284.031,533.039 C282.794,533.039 282.176,532.421 282.176,531.184 L282.176,516.731 L273.875,519.856 L273.875,535.676 C273.875,536.913 273.256,537.531 272.019,537.531 C270.782,537.531 270.164,536.913 270.164,535.676 L270.164,521.125 L267.039,522.297 C266.974,522.362 266.713,522.395 266.258,522.395 C265.737,522.395 265.281,522.199 264.891,521.809 C264.5,521.418 264.305,520.962 264.305,520.442 L264.305,514.387 C264.305,513.41 264.728,512.792 265.574,512.531 L270.164,510.969 L270.164,494.953 L267.039,496.028 C266.974,496.093 266.713,496.125 266.258,496.125 C265.737,496.125 265.281,495.93 264.891,495.539 C264.5,495.149 264.305,494.693 264.305,494.172 L264.305,488.117 C264.305,487.206 264.728,486.62 265.574,486.36 L270.164,484.602 L270.164,468.879 C270.164,467.642 270.782,467.024 272.019,467.024 C273.256,467.024 273.875,467.642 273.875,468.879 L273.875,483.332 L282.176,480.207 L282.176,464.387 C282.176,463.15 282.794,462.531 284.031,462.531 C285.268,462.531 285.887,463.15 285.887,464.387 L285.887,478.938 L289.109,477.766 C289.174,477.701 289.402,477.668 289.793,477.668 C290.249,477.668 290.737,477.864 291.258,478.254 C291.648,478.645 291.844,479.101 291.844,479.621 L291.844,485.676 C291.844,486.587 291.388,487.206 290.476,487.531 L285.887,489.094 L285.887,505.11 L289.109,504.035 C289.174,503.97 289.402,503.938 289.793,503.938 C290.249,503.938 290.737,504.133 291.258,504.524 C291.648,504.914 291.844,505.37 291.844,505.891 L291.844,511.946 C291.844,512.792 291.388,513.378 290.476,513.703 L285.887,515.461 L285.887,531.184 M282.176,490.559 L273.875,493.489 L273.875,509.504 L282.176,506.574 L282.176,490.559 "/>
<path class="KeySig" d="M260.885,493.681 C260.885,494.918 260.267,495.537 259.03,495.537 C257.793,495.537 257.174,494.918 257.174,493.681 L257.174,479.228 L248.873,482.353 L248.873,498.174 C248.873,499.411 248.255,500.029 247.018,500.029 C245.781,500.029 245.162,499.411 245.162,498.174 L245.162,483.623 L242.037,484.795 C241.972,484.86 241.712,484.892 241.256,484.892 C240.735,484.892 240.28,484.697 239.889,484.306 C239.498,483.916 239.303,483.46 239.303,482.939 L239.303,476.885 C239.303,475.908 239.726,475.29 240.573,475.029 L245.162,473.467 L245.162,457.451 L242.037,458.525 C241.972,458.59 241.712,458.623 241.256,458.623 C240.735,458.623 240.28,458.428 239.889,458.037 C239.498,457.646 239.303,457.191 239.303,456.67 L239.303,450.615 C239.303,449.704 239.726,449.118 240.573,448.857 L245.162,447.099 L245.162,431.377 C245.162,430.14 245.781,429.521 247.018,429.521 C248.255,429.521 248.873,430.14 248.873,431.377 L248.873,445.83 L257.174,442.705 L257.174,426.885 C257.174,425.648 257.793,425.029 259.03,425.029 C260.267,425.029 260.885,425.648 260.885,426.885 L260.885,441.435 L264.108,440.264 C264.173,440.198 264.401,440.166 264.791,440.166 C265.247,440.166 265.735,440.361 266.256,440.752 C266.647,441.142 266.842,441.598 266.842,442.119 L266.842,448.174 C266.842,449.085 266.386,449.704 265.475,450.029 L260.885,451.592 L260.885,467.607 L264.108,466.533 C264.173,466.468 264.401,466.435 264.791,466.435 C265.247,466.435 265.735,466.631 266.256,467.021 C266.647,467.412 266.842,467.868 266.842,468.389 L266.842,474.443 C266.842,475.29 266.386,475.875 265.475,476.201 L260.885,477.959 L260.885,493.681 M257.174,453.056 L248.873,455.986 L248.873,472.002 L257.174,469.072 L257.174,453.056 "/>
<path class="KeySig" d="M285.887,243.666 C285.887,244.903 285.268,245.521 284.031,245.521 C282.794,245.521 282.176,244.903 282.176,243.666 L282.176,229.213 L273.875,232.338 L273.875,248.158 C273.875,249.395 273.256,250.013 272.019,250.013 C270.782,250.013 270.164,249.395 270.164,248.158 L270.164,233.607 L267.039,234.779 C266.974,234.844 266.713,234.877 266.258,234.877 C265.737,234.877 265.281,234.681 264.891,234.291 C264.5,233.9 264.305,233.444 264.305,232.924 L264.305,226.869 C264.305,225.892 264.728,225.274 265.574,225.013 L270.164,223.451 L270.164,207.435 L267.039,208.509 C266.974,208.575 266.713,208.607 266.258,208.607 C265.737,208.607 265.281,208.412 264.891,208.021 C264.5,207.631 264.305,207.175 264.305,206.654 L264.305,200.599 C264.305,199.688 264.728,199.102 265.574,198.842 L270.164,197.084 L270.164,181.361 C270.164,180.124 270.782,179.506 272.019,179.506 C273.256,179.506 273.875,180.124 273.875,181.361 L273.875,195.814 L282.176,192.689 L282.176,176.869 C282.176,175.632 282.794,175.013 284.031,175.013 C285.268,175.013 285.887,175.632 285.887,176.869 L285.887,191.42 L289.109,190.248 C289.174,190.183 289.402,190.15 289.793,190.15 C290.249,190.15 290.737,190.345 291.258,190.736 C291.648,191.127 291.844,191.582 291.844,192.103 L291.844,198.158 C291.844,199.069 291.388,199.688 290.476,200.013 L285.887,201.576 L285.887,217.592 L289.109,216.517 C289.174,216.452 289.402,216.42 289.793,216.42 C290.249,216.42 290.737,216.615 291.258,217.006 C291.648,217.396 291.844,217.852 291.844,218.373 L291.844,224.427 C291.844,225.274 291.388,225.86 290.476,226.185 L285.887,227.943 L285.887,243.666 M282.176,203.041 L273.875,205.97 L273.875,221.986 L282.176,219.056 L282.176,203.041 "/>
<path class="KeySig" d="M260.885,206.163 C260.885,207.4 260.267,208.019 259.03,208.019 C257.793,208.019 257.174,207.4 257.174,206.163 L257.174,191.71 L248.873,194.835 L248.873,210.656 C248.873,211.893 248.255,212.511 247.018,212.511 C245.781,212.511 245.162,211.893 245.162,210.656 L245.162,196.105 L242.037,197.277 C241.972,197.342 241.712,197.374 241.256,197.374 C240.735,197.374 240.28,197.179 239.889,196.788 C239.498,196.398 239.303,195.942 239.303,195.421 L239.303,189.366 C239.303,188.39 239.726,187.771 240.573,187.511 L245.162,185.949 L245.162,169.933 L242.037,171.007 C241.972,171.072 241.712,171.105 241.256,171.105 C240.735,171.105 240.28,170.909 239.889,170.519 C239.498,170.128 239.303,169.672 239.303,169.152 L239.303,163.097 C239.303,162.186 239.726,161.6 240.573,161.339 L245.162,159.581 L245.162,143.859 C245.162,142.622 245.781,142.003 247.018,142.003 C248.255,142.003 248.873,142.622 248.873,143.859 L248.873,158.312 L257.174,155.187 L257.174,139.366 C257.174,138.13 257.793,137.511 259.03,137.511 C260.267,137.511 260.885,138.13 260.885,139.366 L260.885,153.917 L264.108,152.745 C264.173,152.68 264.401,152.648 264.791,152.648 C265.247,152.648 265.735,152.843 266.256,153.234 C266.647,153.624 266.842,154.08 266.842,154.601 L266.842,160.656 C266.842,161.567 266.386,162.186 265.475,162.511 L260.885,164.074 L260.885,180.089 L264.108,179.015 C264.173,178.95 264.401,178.917 264.791,178.917 C265.247,178.917 265.735,179.113 266.256,179.503 C266.647,179.894 266.842,180.35 266.842,180.87 L266.842,186.925 C266.842,187.771 266.386,188.357 265.475,188.683 L260.885,190.441 L260.885,206.163 M257.174,165.538 L248.873,168.468 L248.873,184.484 L257.174,181.554 L257.174,165.538 "/>
<path class="TimeSig" d="M339.636,438.713 C341.589,438.713 343.249,438.485 344.617,438.029 C345.984,437.573 346.863,437.346 347.253,437.346 C347.709,437.346 348.067,437.476 348.327,437.736 C348.523,437.931 348.653,438.159 348.718,438.42 C348.718,438.55 348.653,438.745 348.523,439.006 L320.105,472.014 L336.804,472.014 L336.804,458.928 C336.804,458.081 337.032,457.365 337.488,456.779 C338.269,456.128 338.92,455.737 339.441,455.607 C340.287,455.217 341.329,454.305 342.566,452.873 C343.607,451.701 344.844,449.65 346.277,446.721 C346.472,446.33 346.765,446.135 347.156,446.135 C347.937,446.135 348.393,446.59 348.523,447.502 L348.523,472.014 L355.652,472.014 C356.563,472.014 357.084,472.502 357.214,473.478 C357.214,474.455 356.693,474.943 355.652,474.943 L348.523,474.943 L348.523,475.724 C348.523,478.329 349.174,480.542 350.476,482.365 C351.973,484.188 353.731,485.099 355.749,485.099 C356.531,485.099 356.921,485.49 356.921,486.271 C356.921,487.053 356.531,487.443 355.749,487.443 C354.382,487.443 352.169,487.248 349.109,486.857 C346.309,486.402 344.128,486.174 342.566,486.174 C340.938,486.174 338.757,486.402 336.023,486.857 C333.093,487.248 330.912,487.443 329.48,487.443 C328.699,487.443 328.308,487.053 328.308,486.271 C328.308,485.49 328.699,485.099 329.48,485.099 C331.498,485.099 333.256,484.188 334.753,482.365 C336.12,480.477 336.804,478.264 336.804,475.724 L336.804,474.943 L320.105,474.943 C318.998,474.943 318.217,474.683 317.761,474.162 C317.24,473.771 316.98,473.25 316.98,472.599 C316.98,472.404 317.468,471.721 318.445,470.549 C319.551,469.247 320.723,467.652 321.96,465.764 C323.393,463.55 324.76,461.271 326.062,458.928 C327.494,456.258 328.633,453.198 329.48,449.748 C330.456,446.232 330.945,442.652 330.945,439.006 C330.945,437.964 331.4,437.443 332.312,437.443 C332.507,437.443 332.93,437.541 333.581,437.736 C333.777,437.801 334.184,437.899 334.802,438.029 C335.421,438.159 335.925,438.29 336.316,438.42 C337.488,438.615 338.594,438.713 339.636,438.713"/>
<path class="TimeSig" d="M339.636,488.888 C341.589,488.888 343.249,488.66 344.617,488.204 C345.984,487.748 346.863,487.521 347.253,487.521 C347.709,487.521 348.067,487.651 348.327,487.911 C348.523,488.107 348.653,488.334 348.718,488.595 C348.718,488.725 348.653,488.92 348.523,489.181 L320.105,522.189 L336.804,522.189 L336.804,509.103 C336.804,508.256 337.032,507.54 337.488,506.954 C338.269,506.303 338.92,505.912 339.441,505.782 C340.287,505.392 341.329,504.48 342.566,503.048 C343.607,501.876 344.844,499.825 346.277,496.896 C346.472,496.505 346.765,496.31 347.156,496.31 C347.937,496.31 348.393,496.765 348.523,497.677 L348.523,522.189 L355.652,522.189 C356.563,522.189 357.084,522.677 357.214,523.653 C357.214,524.63 356.693,525.118 355.652,525.118 L348.523,525.118 L348.523,525.899 C348.523,528.504 349.174,530.717 350.476,532.54 C351.973,534.363 353.731,535.274 355.749,535.274 C356.531,535.274 356.921,535.665 356.921,536.446 C356.921,537.228 356.531,537.618 355.749,537.618 C354.382,537.618 352.169,537.423 349.109,537.032 C346.309,536.577 344.128,536.349 342.566,536.349 C340.938,536.349 338.757,536.577 336.023,537.032 C333.093,537.423 330.912,537.618 329.48,537.618 C328.699,537.618 328.308,537.228 328.308,536.446 C328.308,535.665 328.699,535.274 329.48,535.274 C331.498,535.274 333.256,534.363 334.753,532.54 C336.12,530.652 336.804,528.439 336.804,525.899 L336.804,525.118 L320.105,525.118 C318.998,525.118 318.217,524.858 317.761,524.337 C317.24,523.946 316.98,523.426 316.98,522.774 C316.98,522.579 317.468,521.896 318.445,520.724 C319.551,519.422 320.723,517.827 321.96,515.939 C323.393,513.725 324.76,511.446 326.062,509.103 C327.494,506.433 328.633,503.373 329.48,499.923 C330.456,496.407 330.945,492.827 330.945,489.181 C330.945,488.139 331.4,487.618 332.312,487.618 C332.507,487.618 332.93,487.716 333.581,487.911 C333.777,487.976 334.184,488.074 334.802,488.204 C335.421,488.334 335.925,488.465 336.316,488.595 C337.488,488.79 338.594,488.888 339.636,488.888"/>
<path class="TimeSig" d="M339.636,176.196 C341.589,176.196 343.249,175.968 344.617,175.513 C345.984,175.057 346.863,174.829 347.253,174.829 C347.709,174.829 348.067,174.959 348.327,175.22 C348.523,175.415 348.653,175.643 348.718,175.903 C348.718,176.033 348.653,176.229 348.523,176.489 L320.105,209.497 L336.804,209.497 L336.804,196.411 C336.804,195.565 337.032,194.849 337.488,194.263 C338.269,193.612 338.92,193.221 339.441,193.091 C340.287,192.7 341.329,191.789 342.566,190.356 C343.607,189.184 344.844,187.134 346.277,184.204 C346.472,183.813 346.765,183.618 347.156,183.618 C347.937,183.618 348.393,184.074 348.523,184.985 L348.523,209.497 L355.652,209.497 C356.563,209.497 357.084,209.985 357.214,210.962 C357.214,211.938 356.693,212.427 355.652,212.427 L348.523,212.427 L348.523,213.208 C348.523,215.812 349.174,218.026 350.476,219.849 C351.973,221.671 353.731,222.583 355.749,222.583 C356.531,222.583 356.921,222.974 356.921,223.755 C356.921,224.536 356.531,224.927 355.749,224.927 C354.382,224.927 352.169,224.731 349.109,224.341 C346.309,223.885 344.128,223.657 342.566,223.657 C340.938,223.657 338.757,223.885 336.023,224.341 C333.093,224.731 330.912,224.927 329.48,224.927 C328.699,224.927 328.308,224.536 328.308,223.755 C328.308,222.974 328.699,222.583 329.48,222.583 C331.498,222.583 333.256,221.671 334.753,219.849 C336.12,217.961 336.804,215.747 336.804,213.208 L336.804,212.427 L320.105,212.427 C318.998,212.427 318.217,212.166 317.761,211.645 C317.24,211.255 316.98,210.734 316.98,210.083 C316.98,209.888 317.468,209.204 318.445,208.032 C319.551,206.73 320.723,205.135 321.96,203.247 C323.393,201.033 324.76,198.755 326.062,196.411 C327.494,193.742 328.633,190.682 329.48,187.231 C330.456,183.716 330.945,180.135 330.945,176.489 C330.945,175.447 331.4,174.927 332.312,174.927 C332.507,174.927 332.93,175.024 333.581,175.22 C333.777,175.285 334.184,175.382 334.802,175.513 C335.421,175.643 335.925,175.773 336.316,175.903 C337.488,176.099 338.594,176.196 339.636,176.196"/>
<path class="TimeSig" d="M339.636,226.371 C341.589,226.371 343.249,226.143 344.617,225.688 C345.984,225.232 346.863,225.004 347.253,225.004 C347.709,225.004 348.067,225.134 348.327,225.395 C348.523,225.59 348.653,225.818 348.718,226.078 C348.718,226.208 348.653,226.404 348.523,226.664 L320.105,259.672 L336.804,259.672 L336.804,246.586 C336.804,245.74 337.032,245.024 337.488,244.438 C338.269,243.787 338.92,243.396 339.441,243.266 C340.287,242.875 341.329,241.964 342.566,240.531 C343.607,239.36 344.844,237.309 346.277,234.379 C346.472,233.988 346.765,233.793 347.156,233.793 C347.937,233.793 348.393,234.249 348.523,235.16 L348.523,259.672 L355.652,259.672 C356.563,259.672 357.084,260.16 357.214,261.137 C357.214,262.113 356.693,262.602 355.652,262.602 L348.523,262.602 L348.523,263.383 C348.523,265.987 349.174,268.201 350.476,270.024 C351.973,271.846 353.731,272.758 355.749,272.758 C356.531,272.758 356.921,273.149 356.921,273.93 C356.921,274.711 356.531,275.102 355.749,275.102 C354.382,275.102 352.169,274.906 349.109,274.516 C346.309,274.06 344.128,273.832 342.566,273.832 C340.938,273.832 338.757,274.06 336.023,274.516 C333.093,274.906 330.912,275.102 329.48,275.102 C328.699,275.102 328.308,274.711 328.308,273.93 C328.308,273.149 328.699,272.758 329.48,272.758 C331.498,272.758 333.256,271.846 334.753,270.024 C336.12,268.136 336.804,265.922 336.804,263.383 L336.804,262.602 L320.105,262.602 C318.998,262.602 318.217,262.341 317.761,261.82 C317.24,261.43 316.98,260.909 316.98,260.258 C316.98,260.063 317.468,259.379 318.445,258.207 C319.551,256.905 320.723,255.31 321.96,253.422 C323.393,251.208 324.76,248.93 326.062,246.586 C327.494,243.917 328.633,240.857 329.48,237.406 C330.456,233.891 330.945,230.31 330.945,226.664 C330.945,225.623 331.4,225.102 332.312,225.102 C332.507,225.102 332.93,225.199 333.581,225.395 C333.777,225.46 334.184,225.557 334.802,225.688 C335.421,225.818 335.925,225.948 336.316,226.078 C337.488,226.274 338.594,226.371 339.636,226.371"/>
<path class="Bracket" fill-rule="evenodd" d="M112.908,303.987 C112.908,274.781 92.7929,246.392 92.7929,218.412 C92.7929,204.319 98.279,190.635 115.194,178.381 C115.423,178.228 115.537,177.972 115.537,177.819 C115.537,177.36 114.28,176.951 113.366,176.951 C112.908,176.951 112.108,177.002 111.537,177.36 C89.5927,193.086 82.278,211.263 82.278,229.645 C82.278,259.259 103.765,287.853 103.765,316.242 C103.765,330.334 98.279,343.61 81.3637,355.864 L81.3637,356.272 L81.3637,356.681 C98.279,368.935 103.765,382.211 103.765,396.303 C103.765,424.692 82.278,453.286 82.278,482.9 C82.278,501.282 89.5927,519.459 111.537,535.185 C112.108,535.543 112.908,535.594 113.366,535.594 C114.28,535.594 115.537,535.185 115.537,534.726 C115.537,534.572 115.423,534.317 115.194,534.164 C98.279,521.91 92.7929,508.226 92.7929,494.133 C92.7929,466.153 112.908,437.763 112.908,408.557 C112.908,389.972 105.594,372.203 84.1067,356.272 C105.594,340.342 112.908,322.573 112.908,303.987"/>
</svg>
