<?xml version="1.0" encoding="UTF-8" standalone="no"?>
<svg width="1417.32px" height="850.394px" viewBox="0 0 1417.32 850.394"
 xmlns="http://www.w3.org/2000/svg" xmlns:xlink="http://www.w3.org/1999/xlink" version="1.2" baseProfile="tiny">
<title>Senza titolo-2</title>
<desc>Generated by MuseScore 3.5.0</desc>
<polyline class="StaffLines" fill="none" stroke="#000000" stroke-width="2.00" stroke-linejoin="bevel" points="79.8545,245.877 1389.97,245.877"/>
<polyline class="StaffLines" fill="none" stroke="#000000" stroke-width="2.00" stroke-linejoin="bevel" points="79.8545,270.879 1389.97,270.879"/>
<polyline class="StaffLines" fill="none" stroke="#000000" stroke-width="2.00" stroke-linejoin="bevel" points="79.8545,295.88 1389.97,295.88"/>
<polyline class="StaffLines" fill="none" stroke="#000000" stroke-width="2.00" stroke-linejoin="bevel" points="79.8545,320.882 1389.97,320.882"/>
<polyline class="StaffLines" fill="none" stroke="#000000" stroke-width="2.00" stroke-linejoin="bevel" points="79.8545,345.883 1389.97,345.883"/>
<polyline class="StaffLines" fill="none" stroke="#000000" stroke-width="2.00" stroke-linejoin="bevel" points="79.8545,568.933 1389.97,568.933"/>
<polyline class="StaffLines" fill="none" stroke="#000000" stroke-width="2.00" stroke-linejoin="bevel" points="79.8545,593.935 1389.97,593.935"/>
<polyline class="StaffLines" fill="none" stroke="#000000" stroke-width="2.00" stroke-linejoin="bevel" points="79.8545,618.936 1389.97,618.936"/>
<polyline class="StaffLines" fill="none" stroke="#000000" stroke-width="2.00" stroke-linejoin="bevel" points="79.8545,643.938 1389.97,643.938"/>
<polyline class="StaffLines" fill="none" stroke="#000000" stroke-width="2.00" stroke-linejoin="bevel" points="79.8545,668.939 1389.97,668.939"/>
<path class="SlurSegment" stroke="#000000" stroke-width="1.75" stroke-linecap="round" stroke-linejoin="round" fill-rule="evenodd" d="M440.439,496.429 C504.154,450.59 626.582,456.841 685.297,508.929 C626.379,460.836 503.95,454.585 440.439,496.429"/>
<path class="SlurSegment" stroke="#000000" stroke-width="1.75" stroke-linecap="round" stroke-linejoin="round" fill-rule="evenodd" d="M969.56,521.43 C1023.6,479.439 1126.2,485.689 1174.74,533.931 C1125.95,489.682 1023.36,483.432 969.56,521.43"/>
<path class="SlurSegment" stroke="#000000" stroke-width="1.75" stroke-linecap="round" stroke-linejoin="round" fill-rule="evenodd" d="M465.648,195.874 C544.592,136.607 892.786,160.064 963.067,229.384 C892.517,164.055 544.323,140.598 465.648,195.874"/>
<polyline class="BarLine" stroke="#000000" stroke-width="4.00" stroke-linejoin="bevel" points="81.8546,567.933 81.8546,669.939"/>
<polyline class="BarLine" stroke="#000000" stroke-width="4.00" stroke-linejoin="bevel" points="915.697,567.933 915.697,669.939"/>
<polyline class="BarLine" stroke="#000000" stroke-width="4.00" stroke-linejoin="bevel" points="1365.47,567.933 1365.47,669.939"/>
<polyline class="BarLine" stroke="#000000" stroke-width="12.50" stroke-linejoin="bevel" points="1383.72,567.933 1383.72,669.939"/>
<polyline class="BarLine" stroke="#000000" stroke-width="4.00" stroke-linejoin="bevel" points="81.8546,244.877 81.8546,568.933"/>
<polyline class="BarLine" stroke="#000000" stroke-width="4.00" stroke-linejoin="bevel" points="915.697,244.877 915.697,568.933"/>
<polyline class="BarLine" stroke="#000000" stroke-width="4.00" stroke-linejoin="bevel" points="1365.47,244.877 1365.47,568.933"/>
<polyline class="BarLine" stroke="#000000" stroke-width="12.50" stroke-linejoin="bevel" points="1383.72,244.877 1383.72,568.933"/>
<polyline class="LedgerLine" stroke="#000000" stroke-width="4.00" stroke-linecap="square" stroke-linejoin="bevel" points="415.579,543.932 465.3,543.932"/>
<polyline class="LedgerLine" stroke="#000000" stroke-width="4.00" stroke-linecap="square" stroke-linejoin="bevel" points="415.579,518.93 465.3,518.93"/>
<polyline class="LedgerLine" stroke="#000000" stroke-width="4.00" stroke-linecap="square" stroke-linejoin="bevel" points="660.436,543.932 710.158,543.932"/>
<polyline class="LedgerLine" stroke="#000000" stroke-width="4.00" stroke-linecap="square" stroke-linejoin="bevel" points="944.699,543.932 994.421,543.932"/>
<polyline class="Stem" stroke="#000000" stroke-width="3.25" stroke-linecap="round" stroke-linejoin="bevel" points="424.704,522.85 424.704,618.936"/>
<polyline class="Stem" stroke="#000000" stroke-width="3.25" stroke-linecap="round" stroke-linejoin="bevel" points="669.562,535.351 669.562,687.691"/>
<polyline class="Stem" stroke="#000000" stroke-width="3.25" stroke-linecap="round" stroke-linejoin="bevel" points="953.824,547.852 953.824,631.437"/>
<polyline class="Stem" stroke="#000000" stroke-width="3.25" stroke-linecap="round" stroke-linejoin="bevel" points="1159.01,560.353 1159.01,643.938"/>
<polyline class="Stem" stroke="#000000" stroke-width="3.25" stroke-linecap="round" stroke-linejoin="bevel" points="455.272,341.188 455.272,189.624"/>
<polyline class="Stem" stroke="#000000" stroke-width="3.25" stroke-linecap="round" stroke-linejoin="bevel" points="577.701,328.687 577.701,245.877"/>
<polyline class="Stem" stroke="#000000" stroke-width="3.25" stroke-linecap="round" stroke-linejoin="bevel" points="670.464,263.074 670.464,392.761"/>
<polyline class="Stem" stroke="#000000" stroke-width="3.25" stroke-linecap="round" stroke-linejoin="bevel" points="792.893,275.574 792.893,355.259"/>
<path class="Note" d="M454.626,512.383 C454.626,511.279 454.204,510.336 453.36,509.555 C452.506,508.711 451.527,508.289 450.423,508.289 C448.475,508.289 444.537,510.242 438.61,514.149 C432.485,518.117 428.74,520.951 427.376,522.649 C426.657,523.555 426.298,524.498 426.298,525.477 C426.298,526.581 426.725,527.524 427.579,528.305 C428.36,529.149 429.334,529.571 430.501,529.571 C432.386,529.571 436.36,527.617 442.423,523.711 C448.412,519.805 452.121,516.972 453.548,515.211 C454.266,514.367 454.626,513.425 454.626,512.383 M449.454,505.164 C455.048,505.164 457.845,507.571 457.845,512.383 C457.845,514.727 457.162,517.461 455.798,520.586 C454.433,523.649 452.61,525.992 450.329,527.617 C445.319,531.003 439.037,532.696 431.485,532.696 C425.881,532.696 423.079,530.289 423.079,525.477 C423.079,523.331 423.761,520.628 425.126,517.367 C426.428,514.242 428.251,511.867 430.595,510.242 C435.615,506.857 441.902,505.164 449.454,505.164"/>
<path class="Note" d="M699.484,599.889 C699.484,598.784 699.062,597.842 698.218,597.06 C697.364,596.217 696.385,595.795 695.28,595.795 C693.333,595.795 689.395,597.748 683.468,601.654 C677.343,605.623 673.598,608.456 672.234,610.154 C671.515,611.06 671.155,612.003 671.155,612.982 C671.155,614.087 671.583,615.029 672.437,615.81 C673.218,616.654 674.192,617.076 675.359,617.076 C677.244,617.076 681.218,615.123 687.28,611.217 C693.27,607.31 696.978,604.477 698.405,602.717 C699.124,601.873 699.484,600.93 699.484,599.889 M694.312,592.67 C699.905,592.67 702.702,595.076 702.702,599.889 C702.702,602.232 702.02,604.967 700.655,608.092 C699.291,611.154 697.468,613.498 695.187,615.123 C690.176,618.508 683.895,620.201 676.343,620.201 C670.739,620.201 667.937,617.795 667.937,612.982 C667.937,610.837 668.619,608.133 669.984,604.873 C671.286,601.748 673.109,599.373 675.452,597.748 C680.473,594.363 686.76,592.67 694.312,592.67"/>
<path class="Note" d="M699.484,524.884 C699.484,523.78 699.062,522.837 698.218,522.056 C697.364,521.212 696.385,520.79 695.28,520.79 C693.333,520.79 689.395,522.743 683.468,526.65 C677.343,530.618 673.598,533.452 672.234,535.15 C671.515,536.056 671.155,536.998 671.155,537.978 C671.155,539.082 671.583,540.025 672.437,540.806 C673.218,541.65 674.192,542.071 675.359,542.071 C677.244,542.071 681.218,540.118 687.28,536.212 C693.27,532.306 696.978,529.472 698.405,527.712 C699.124,526.868 699.484,525.926 699.484,524.884 M694.312,517.665 C699.905,517.665 702.702,520.071 702.702,524.884 C702.702,527.228 702.02,529.962 700.655,533.087 C699.291,536.15 697.468,538.493 695.187,540.118 C690.176,543.504 683.895,545.196 676.343,545.196 C670.739,545.196 667.937,542.79 667.937,537.978 C667.937,535.832 668.619,533.129 669.984,529.868 C671.286,526.743 673.109,524.368 675.452,522.743 C680.473,519.358 686.76,517.665 694.312,517.665"/>
<path class="Note" d="M983.746,537.385 C983.746,536.28 983.324,535.338 982.481,534.557 C981.626,533.713 980.647,533.291 979.543,533.291 C977.595,533.291 973.658,535.244 967.731,539.15 C961.606,543.119 957.861,545.952 956.496,547.65 C955.777,548.557 955.418,549.499 955.418,550.478 C955.418,551.583 955.845,552.525 956.699,553.307 C957.481,554.15 958.454,554.572 959.621,554.572 C961.507,554.572 965.481,552.619 971.543,548.713 C977.533,544.807 981.241,541.973 982.668,540.213 C983.387,539.369 983.746,538.426 983.746,537.385 M978.574,530.166 C984.168,530.166 986.965,532.572 986.965,537.385 C986.965,539.728 986.283,542.463 984.918,545.588 C983.553,548.65 981.731,550.994 979.449,552.619 C974.439,556.004 968.158,557.697 960.606,557.697 C955.001,557.697 952.199,555.291 952.199,550.478 C952.199,548.333 952.882,545.629 954.246,542.369 C955.548,539.244 957.371,536.869 959.715,535.244 C964.736,531.859 971.022,530.166 978.574,530.166"/>
<path class="Note" d="M1188.93,549.885 C1188.93,548.781 1188.51,547.839 1187.66,547.057 C1186.81,546.214 1185.83,545.792 1184.73,545.792 C1182.78,545.792 1178.84,547.745 1172.91,551.651 C1166.79,555.62 1163.04,558.453 1161.68,560.151 C1160.96,561.057 1160.6,562 1160.6,562.979 C1160.6,564.083 1161.03,565.026 1161.88,565.807 C1162.66,566.651 1163.64,567.073 1164.8,567.073 C1166.69,567.073 1170.66,565.12 1176.73,561.214 C1182.72,557.307 1186.42,554.474 1187.85,552.714 C1188.57,551.87 1188.93,550.927 1188.93,549.885 M1183.76,542.667 C1189.35,542.667 1192.15,545.073 1192.15,549.885 C1192.15,552.229 1191.47,554.964 1190.1,558.089 C1188.74,561.151 1186.91,563.495 1184.63,565.12 C1179.62,568.505 1173.34,570.198 1165.79,570.198 C1160.18,570.198 1157.38,567.792 1157.38,562.979 C1157.38,560.833 1158.06,558.13 1159.43,554.87 C1160.73,551.745 1162.55,549.37 1164.9,547.745 C1169.92,544.359 1176.2,542.667 1183.76,542.667"/>
<path class="Note" d="M445.95,332.118 C449.075,332.118 451.716,332.93 453.872,334.555 C455.882,336.316 456.888,338.529 456.888,341.196 C456.888,345.686 454.58,349.883 449.966,353.79 C445.278,357.696 440.263,359.649 434.919,359.649 C431.794,359.649 429.158,358.837 427.013,357.212 C424.992,355.451 423.981,353.238 423.981,350.571 C423.981,346.081 426.325,341.883 431.013,337.977 C435.575,334.071 440.554,332.118 445.95,332.118"/>
<path class="Note" d="M445.95,282.115 C449.075,282.115 451.716,282.927 453.872,284.552 C455.882,286.313 456.888,288.526 456.888,291.193 C456.888,295.682 454.58,299.88 449.966,303.787 C445.278,307.693 440.263,309.646 434.919,309.646 C431.794,309.646 429.158,308.833 427.013,307.208 C424.992,305.448 423.981,303.234 423.981,300.568 C423.981,296.078 426.325,291.88 431.013,287.974 C435.575,284.068 440.554,282.115 445.95,282.115"/>
<path class="Note" d="M445.95,244.612 C449.075,244.612 451.716,245.425 453.872,247.05 C455.882,248.81 456.888,251.024 456.888,253.69 C456.888,258.18 454.58,262.378 449.966,266.284 C445.278,270.19 440.263,272.144 434.919,272.144 C431.794,272.144 429.158,271.331 427.013,269.706 C424.992,267.946 423.981,265.732 423.981,263.065 C423.981,258.576 426.325,254.378 431.013,250.472 C435.575,246.565 440.554,244.612 445.95,244.612"/>
<path class="Note" d="M568.379,319.617 C571.504,319.617 574.145,320.43 576.301,322.055 C578.311,323.815 579.317,326.029 579.317,328.695 C579.317,333.185 577.009,337.383 572.395,341.289 C567.707,345.195 562.692,347.148 557.348,347.148 C554.223,347.148 551.587,346.336 549.442,344.711 C547.421,342.95 546.41,340.737 546.41,338.07 C546.41,333.581 548.754,329.383 553.442,325.476 C558.004,321.57 562.983,319.617 568.379,319.617"/>
<path class="Note" d="M690.808,307.116 C693.933,307.116 696.573,307.929 698.73,309.554 C700.74,311.314 701.745,313.528 701.745,316.194 C701.745,320.684 699.438,324.882 694.823,328.788 C690.136,332.694 685.12,334.648 679.777,334.648 C676.652,334.648 674.016,333.835 671.87,332.21 C669.85,330.45 668.839,328.236 668.839,325.569 C668.839,321.08 671.183,316.882 675.87,312.976 C680.433,309.069 685.412,307.116 690.808,307.116"/>
<path class="Note" d="M690.808,282.115 C693.933,282.115 696.573,282.927 698.73,284.552 C700.74,286.313 701.745,288.526 701.745,291.193 C701.745,295.682 699.438,299.88 694.823,303.787 C690.136,307.693 685.12,309.646 679.777,309.646 C676.652,309.646 674.016,308.833 671.87,307.208 C669.85,305.448 668.839,303.234 668.839,300.568 C668.839,296.078 671.183,291.88 675.87,287.974 C680.433,284.068 685.412,282.115 690.808,282.115"/>
<path class="Note" d="M690.808,244.612 C693.933,244.612 696.573,245.425 698.73,247.05 C700.74,248.81 701.745,251.024 701.745,253.69 C701.745,258.18 699.438,262.378 694.823,266.284 C690.136,270.19 685.12,272.144 679.777,272.144 C676.652,272.144 674.016,271.331 671.87,269.706 C669.85,267.946 668.839,265.732 668.839,263.065 C668.839,258.576 671.183,254.378 675.87,250.472 C680.433,246.565 685.412,244.612 690.808,244.612"/>
<path class="Note" d="M813.237,257.113 C816.362,257.113 819.002,257.926 821.159,259.551 C823.169,261.311 824.174,263.525 824.174,266.191 C824.174,270.681 821.867,274.879 817.252,278.785 C812.565,282.691 807.549,284.644 802.205,284.644 C799.08,284.644 796.445,283.832 794.299,282.207 C792.278,280.446 791.268,278.233 791.268,275.566 C791.268,271.077 793.612,266.879 798.299,262.972 C802.862,259.066 807.841,257.113 813.237,257.113"/>
<path class="Note" d="M966.285,322.148 C963.941,322.148 962.248,322.961 961.207,324.586 C960.04,326.148 959.457,328.268 959.457,330.945 C959.457,334.008 960.269,336.643 961.894,338.851 C963.519,340.997 965.311,342.497 967.269,343.351 C969.019,344.195 970.873,344.617 972.832,344.617 C975.113,344.617 976.837,343.805 978.003,342.18 C979.108,340.544 979.66,338.424 979.66,335.82 C979.66,332.758 978.847,330.122 977.222,327.914 C975.597,325.831 973.842,324.331 971.957,323.414 C970.061,322.57 968.17,322.148 966.285,322.148 M969.613,319.617 C976.644,319.617 982.503,320.982 987.191,323.711 C991.941,326.45 994.316,329.674 994.316,333.383 C994.316,337.351 991.873,340.607 986.988,343.148 C982.102,345.815 976.311,347.148 969.613,347.148 C962.707,347.148 956.847,345.784 952.035,343.055 C947.212,340.315 944.8,337.091 944.8,333.383 C944.8,329.414 947.274,326.159 952.222,323.617 C957.108,320.95 962.905,319.617 969.613,319.617"/>
<path class="Note" d="M966.285,297.147 C963.941,297.147 962.248,297.959 961.207,299.584 C960.04,301.147 959.457,303.267 959.457,305.944 C959.457,309.006 960.269,311.642 961.894,313.85 C963.519,315.996 965.311,317.496 967.269,318.35 C969.019,319.194 970.873,319.615 972.832,319.615 C975.113,319.615 976.837,318.803 978.003,317.178 C979.108,315.543 979.66,313.423 979.66,310.819 C979.66,307.756 978.847,305.121 977.222,302.912 C975.597,300.829 973.842,299.329 971.957,298.412 C970.061,297.569 968.17,297.147 966.285,297.147 M969.613,294.615 C976.644,294.615 982.503,295.98 987.191,298.709 C991.941,301.449 994.316,304.673 994.316,308.381 C994.316,312.35 991.873,315.605 986.988,318.147 C982.102,320.813 976.311,322.147 969.613,322.147 C962.707,322.147 956.847,320.782 952.035,318.053 C947.212,315.313 944.8,312.089 944.8,308.381 C944.8,304.412 947.274,301.157 952.222,298.615 C957.108,295.949 962.905,294.615 969.613,294.615"/>
<path class="Note" d="M966.285,247.144 C963.941,247.144 962.248,247.956 961.207,249.581 C960.04,251.144 959.457,253.263 959.457,255.94 C959.457,259.003 960.269,261.638 961.894,263.847 C963.519,265.993 965.311,267.493 967.269,268.347 C969.019,269.19 970.873,269.612 972.832,269.612 C975.113,269.612 976.837,268.8 978.003,267.175 C979.108,265.539 979.66,263.42 979.66,260.815 C979.66,257.753 978.847,255.118 977.222,252.909 C975.597,250.826 973.842,249.326 971.957,248.409 C970.061,247.565 968.17,247.144 966.285,247.144 M969.613,244.612 C976.644,244.612 982.503,245.977 987.191,248.706 C991.941,251.446 994.316,254.67 994.316,258.378 C994.316,262.347 991.873,265.602 986.988,268.144 C982.102,270.81 976.311,272.144 969.613,272.144 C962.707,272.144 956.847,270.779 952.035,268.05 C947.212,265.31 944.8,262.086 944.8,258.378 C944.8,254.409 947.274,251.154 952.222,248.612 C957.108,245.946 962.905,244.612 969.613,244.612"/>
<path class="Clef" d="M162.262,585.044 C161.288,584.065 160.801,582.859 160.801,581.427 C160.801,579.995 161.288,578.791 162.262,577.818 C163.236,576.844 164.439,576.357 165.871,576.357 C167.304,576.357 168.509,576.844 169.489,577.818 C170.468,578.791 170.957,579.995 170.957,581.427 C170.957,582.859 170.468,584.065 169.489,585.044 C168.509,586.023 167.304,586.513 165.871,586.513 C164.439,586.513 163.236,586.023 162.262,585.044 M162.262,610.052 C161.288,609.078 160.801,607.875 160.801,606.443 C160.801,605.01 161.288,603.804 162.262,602.825 C163.236,601.846 164.439,601.357 165.871,601.357 C167.304,601.357 168.509,601.846 169.489,602.825 C170.468,603.804 170.957,605.01 170.957,606.443 C170.957,607.875 170.468,609.078 169.489,610.052 C168.509,611.026 167.304,611.513 165.871,611.513 C164.439,611.513 163.236,611.026 162.262,610.052 M128.379,567.669 C137.036,567.669 144.129,569.846 149.661,574.2 C155.004,578.763 157.676,584.95 157.676,592.763 C157.676,598.034 156.634,602.851 154.551,607.216 C152.593,611.778 150.02,615.815 146.832,619.325 C143.572,622.909 139.634,626.294 135.02,629.482 C130.52,632.607 125.895,635.409 121.145,637.888 C111.447,642.763 106.108,645.2 105.129,645.2 C104.286,645.2 103.864,644.778 103.864,643.935 C103.864,643.612 103.994,643.32 104.254,643.06 C107.577,641.101 111.645,638.596 116.457,635.544 C119.582,633.523 123.228,630.721 127.395,627.138 C131.437,623.752 134.562,620.565 136.77,617.575 C139.051,614.638 141.134,610.992 143.02,606.638 C144.645,602.273 145.457,597.971 145.457,593.732 C145.457,587.419 143.895,581.919 140.77,577.232 C137.645,572.544 133.515,570.2 128.379,570.2 C124.733,570.2 121.608,571.372 119.004,573.716 C116.202,576.122 114.181,579.148 112.942,582.794 C114.181,582.273 115.322,582.013 116.364,582.013 C119.093,582.013 121.437,582.992 123.395,584.95 C125.343,587.034 126.317,589.409 126.317,592.075 C126.317,594.877 125.374,597.388 123.489,599.607 C121.468,601.617 119.093,602.622 116.364,602.622 C113.437,602.622 110.801,601.617 108.457,599.607 C106.239,597.388 105.129,594.877 105.129,592.075 C105.129,585.367 107.411,579.638 111.973,574.888 C116.463,570.075 121.931,567.669 128.379,567.669"/>
<path class="Clef" d="M141.848,295.288 C141.848,295.288 142.046,295.288 142.442,295.288 C142.702,295.226 142.926,295.194 143.114,295.194 C150.405,295.194 156.395,297.767 161.082,302.913 C165.77,307.986 168.114,313.908 168.114,320.679 C168.114,329.085 164.634,335.924 157.676,341.194 C155.853,342.632 153.473,343.804 150.536,344.71 C150.869,348.939 151.036,352.356 151.036,354.96 C151.036,355.481 150.968,357.371 150.832,360.632 C150.572,366.684 148.489,371.924 144.582,376.351 C140.812,380.715 136.124,382.898 130.52,382.898 C125.249,382.898 120.759,381.043 117.051,377.335 C113.332,373.554 111.473,368.996 111.473,363.663 C111.473,360.861 112.551,358.481 114.707,356.523 C116.916,354.575 119.483,353.601 122.411,353.601 C125.015,353.601 127.197,354.611 128.957,356.632 C130.78,358.517 131.692,360.861 131.692,363.663 C131.692,366.194 130.78,368.371 128.957,370.194 C127.134,372.017 124.952,372.929 122.411,372.929 C121.369,372.929 120.364,372.736 119.395,372.351 C122.259,376.58 126.067,378.694 130.817,378.694 C135.306,378.694 138.983,376.871 141.848,373.226 C144.848,369.455 146.478,365.059 146.739,360.038 C146.864,356.913 146.926,355.127 146.926,354.679 C146.926,351.033 146.796,348.038 146.536,345.694 C143.286,346.215 140.39,346.476 137.848,346.476 C128.796,346.476 121.082,342.892 114.707,335.726 C108.457,328.496 105.332,319.903 105.332,309.944 C105.332,307.861 105.525,305.746 105.911,303.601 C106.306,301.84 106.796,299.918 107.379,297.835 C107.702,296.658 108.582,294.767 110.02,292.163 C110.541,291.382 111.127,290.405 111.778,289.233 C112.429,288.062 112.884,287.283 113.145,286.898 C113.791,285.595 115.056,283.835 116.942,281.616 C117.463,281.033 118.002,280.384 118.559,279.671 C119.116,278.957 119.59,278.371 119.981,277.913 C120.371,277.455 120.663,277.095 120.856,276.835 C121.049,276.575 122.515,274.851 125.254,271.663 C125.9,271.007 126.533,270.306 127.153,269.562 C127.772,268.817 128.278,268.231 128.668,267.804 C129.059,267.377 129.353,267.069 129.551,266.882 C127.207,259.132 125.739,252.944 125.145,248.319 C124.697,244.611 124.473,239.533 124.473,233.085 C124.473,227.418 125.775,222.111 128.379,217.163 C130.911,212.028 134.457,207.83 139.02,204.569 C139.28,204.371 139.603,204.273 139.989,204.273 C140.447,204.273 140.775,204.371 140.973,204.569 C144.483,208.799 147.509,214.299 150.051,221.069 C152.655,227.84 153.957,233.996 153.957,239.538 C153.957,245.788 152.463,251.648 149.473,257.116 C146.088,262.908 141.723,268.898 136.379,275.085 C137.744,279.377 139.567,286.111 141.848,295.288 M150.145,340.71 C153.53,339.47 156.171,337.356 158.067,334.366 C160.15,331.502 161.192,328.278 161.192,324.694 C161.192,320.069 159.629,315.965 156.504,312.382 C153.306,308.674 149.233,306.59 144.286,306.132 C147.088,319.871 149.041,331.398 150.145,340.71 M112.364,318.148 C112.364,324.595 114.968,330.262 120.176,335.148 C125.509,339.898 131.499,342.273 138.145,342.273 C140.874,342.273 143.541,342.075 146.145,341.679 C145.103,331.783 143.051,319.934 139.989,306.132 C136.28,306.528 133.322,307.83 131.114,310.038 C128.957,312.319 127.879,314.892 127.879,317.757 C127.879,322.705 130.52,326.71 135.801,329.773 C136.249,330.231 136.473,330.72 136.473,331.241 C136.473,331.762 136.249,332.246 135.801,332.694 C135.405,333.153 134.916,333.382 134.332,333.382 C134.27,333.382 133.978,333.319 133.457,333.194 C129.739,331.174 126.874,328.569 124.864,325.382 C122.968,321.986 122.02,318.564 122.02,315.116 C122.02,310.627 123.421,306.559 126.223,302.913 C129.15,299.267 132.957,296.924 137.645,295.882 C135.822,288.59 134.327,282.892 133.161,278.788 C132.119,279.965 130.866,281.382 129.403,283.038 C127.939,284.694 127.077,285.689 126.817,286.023 C124.473,289.075 122.681,291.45 121.442,293.148 C119.223,296.21 117.593,298.845 116.551,301.054 C115.447,303.533 114.473,306.236 113.629,309.163 C112.786,311.965 112.364,314.96 112.364,318.148 M144.973,218.835 C140.088,221.241 136.249,224.689 133.457,229.179 C130.593,233.804 129.161,238.783 129.161,244.116 C129.161,248.804 130.332,255.121 132.676,263.069 C137.364,257.403 140.879,252.163 143.223,247.351 C145.692,242.267 146.926,236.96 146.926,231.429 C146.926,227.262 146.275,223.064 144.973,218.835"/>
<path class="KeySig" d="M292.374,650.093 C292.374,651.332 291.757,651.952 290.523,651.952 C289.288,651.952 288.671,651.332 288.671,650.093 L288.671,635.639 L280.374,638.764 L280.374,654.577 C280.374,655.816 279.754,656.436 278.515,656.436 C277.275,656.436 276.655,655.816 276.655,654.577 L276.655,640.03 L273.53,641.202 C273.468,641.264 273.207,641.296 272.749,641.296 C272.228,641.296 271.773,641.1 271.382,640.71 C270.991,640.319 270.796,639.863 270.796,639.343 L270.796,633.296 C270.796,632.316 271.218,631.697 272.062,631.436 L276.655,629.874 L276.655,613.858 L273.53,614.936 C273.468,614.999 273.207,615.03 272.749,615.03 C272.228,615.03 271.773,614.835 271.382,614.444 C270.991,614.053 270.796,613.598 270.796,613.077 L270.796,607.014 C270.796,606.108 271.218,605.525 272.062,605.264 L276.655,603.499 L276.655,587.78 C276.655,586.54 277.275,585.921 278.515,585.921 C279.754,585.921 280.374,586.54 280.374,587.78 L280.374,602.233 L288.671,599.108 L288.671,583.296 C288.671,582.056 289.288,581.436 290.523,581.436 C291.757,581.436 292.374,582.056 292.374,583.296 L292.374,597.843 L295.608,596.671 C295.671,596.608 295.895,596.577 296.28,596.577 C296.739,596.577 297.228,596.77 297.749,597.155 C298.145,597.551 298.343,598.009 298.343,598.53 L298.343,604.577 C298.343,605.494 297.884,606.113 296.968,606.436 L292.374,607.999 L292.374,624.014 L295.608,622.936 C295.671,622.874 295.895,622.843 296.28,622.843 C296.739,622.843 297.228,623.04 297.749,623.436 C298.145,623.822 298.343,624.275 298.343,624.796 L298.343,630.858 C298.343,631.702 297.884,632.285 296.968,632.608 L292.374,634.374 L292.374,650.093 M288.671,609.468 L280.374,612.389 L280.374,628.405 L288.671,625.483 L288.671,609.468 "/>
<path class="KeySig" d="M267.373,612.59 C267.373,613.83 266.755,614.45 265.521,614.45 C264.287,614.45 263.669,613.83 263.669,612.59 L263.669,598.137 L255.373,601.262 L255.373,617.075 C255.373,618.314 254.753,618.934 253.513,618.934 C252.274,618.934 251.654,618.314 251.654,617.075 L251.654,602.528 L248.529,603.7 C248.466,603.762 248.206,603.793 247.748,603.793 C247.227,603.793 246.771,603.598 246.38,603.207 C245.99,602.817 245.794,602.361 245.794,601.84 L245.794,595.793 C245.794,594.814 246.216,594.194 247.06,593.934 L251.654,592.371 L251.654,576.356 L248.529,577.434 C248.466,577.496 248.206,577.528 247.748,577.528 C247.227,577.528 246.771,577.332 246.38,576.942 C245.99,576.551 245.794,576.095 245.794,575.575 L245.794,569.512 C245.794,568.606 246.216,568.022 247.06,567.762 L251.654,565.996 L251.654,550.278 C251.654,549.038 252.274,548.418 253.513,548.418 C254.753,548.418 255.373,549.038 255.373,550.278 L255.373,564.731 L263.669,561.606 L263.669,545.793 C263.669,544.554 264.287,543.934 265.521,543.934 C266.755,543.934 267.373,544.554 267.373,545.793 L267.373,560.34 L270.607,559.168 C270.669,559.106 270.893,559.075 271.279,559.075 C271.737,559.075 272.227,559.267 272.748,559.653 C273.143,560.048 273.341,560.507 273.341,561.028 L273.341,567.075 C273.341,567.991 272.883,568.611 271.966,568.934 L267.373,570.496 L267.373,586.512 L270.607,585.434 C270.669,585.371 270.893,585.34 271.279,585.34 C271.737,585.34 272.227,585.538 272.748,585.934 C273.143,586.319 273.341,586.772 273.341,587.293 L273.341,593.356 C273.341,594.2 272.883,594.783 271.966,595.106 L267.373,596.871 L267.373,612.59 M263.669,571.965 L255.373,574.887 L255.373,590.903 L263.669,587.981 L263.669,571.965 "/>
<path class="KeySig" d="M242.371,662.593 C242.371,663.833 241.754,664.453 240.519,664.453 C239.285,664.453 238.668,663.833 238.668,662.593 L238.668,648.14 L230.371,651.265 L230.371,667.078 C230.371,668.317 229.751,668.937 228.512,668.937 C227.272,668.937 226.652,668.317 226.652,667.078 L226.652,652.531 L223.527,653.703 C223.465,653.765 223.204,653.796 222.746,653.796 C222.225,653.796 221.769,653.601 221.379,653.21 C220.988,652.82 220.793,652.364 220.793,651.843 L220.793,645.796 C220.793,644.817 221.215,644.197 222.058,643.937 L226.652,642.375 L226.652,626.359 L223.527,627.437 C223.465,627.5 223.204,627.531 222.746,627.531 C222.225,627.531 221.769,627.335 221.379,626.945 C220.988,626.554 220.793,626.099 220.793,625.578 L220.793,619.515 C220.793,618.609 221.215,618.026 222.058,617.765 L226.652,616 L226.652,600.281 C226.652,599.041 227.272,598.421 228.512,598.421 C229.751,598.421 230.371,599.041 230.371,600.281 L230.371,614.734 L238.668,611.609 L238.668,595.796 C238.668,594.557 239.285,593.937 240.519,593.937 C241.754,593.937 242.371,594.557 242.371,595.796 L242.371,610.343 L245.605,609.171 C245.668,609.109 245.892,609.078 246.277,609.078 C246.736,609.078 247.225,609.27 247.746,609.656 C248.142,610.052 248.34,610.51 248.34,611.031 L248.34,617.078 C248.34,617.994 247.881,618.614 246.965,618.937 L242.371,620.5 L242.371,636.515 L245.605,635.437 C245.668,635.375 245.892,635.343 246.277,635.343 C246.736,635.343 247.225,635.541 247.746,635.937 C248.142,636.322 248.34,636.776 248.34,637.296 L248.34,643.359 C248.34,644.203 247.881,644.786 246.965,645.109 L242.371,646.875 L242.371,662.593 M238.668,621.968 L230.371,624.89 L230.371,640.906 L238.668,637.984 L238.668,621.968 "/>
<path class="KeySig" d="M217.369,625.091 C217.369,626.331 216.752,626.95 215.518,626.95 C214.283,626.95 213.666,626.331 213.666,625.091 L213.666,610.638 L205.369,613.763 L205.369,629.575 C205.369,630.815 204.75,631.435 203.51,631.435 C202.27,631.435 201.651,630.815 201.651,629.575 L201.651,615.028 L198.526,616.2 C198.463,616.263 198.203,616.294 197.744,616.294 C197.224,616.294 196.768,616.099 196.377,615.708 C195.987,615.318 195.791,614.862 195.791,614.341 L195.791,608.294 C195.791,607.315 196.213,606.695 197.057,606.435 L201.651,604.872 L201.651,588.857 L198.526,589.935 C198.463,589.997 198.203,590.028 197.744,590.028 C197.224,590.028 196.768,589.833 196.377,589.443 C195.987,589.052 195.791,588.596 195.791,588.075 L195.791,582.013 C195.791,581.107 196.213,580.523 197.057,580.263 L201.651,578.497 L201.651,562.778 C201.651,561.539 202.27,560.919 203.51,560.919 C204.75,560.919 205.369,561.539 205.369,562.778 L205.369,577.232 L213.666,574.107 L213.666,558.294 C213.666,557.054 214.283,556.435 215.518,556.435 C216.752,556.435 217.369,557.054 217.369,558.294 L217.369,572.841 L220.604,571.669 C220.666,571.607 220.89,571.575 221.276,571.575 C221.734,571.575 222.224,571.768 222.744,572.153 C223.14,572.549 223.338,573.008 223.338,573.528 L223.338,579.575 C223.338,580.492 222.88,581.112 221.963,581.435 L217.369,582.997 L217.369,599.013 L220.604,597.935 C220.666,597.872 220.89,597.841 221.276,597.841 C221.734,597.841 222.224,598.039 222.744,598.435 C223.14,598.82 223.338,599.273 223.338,599.794 L223.338,605.857 C223.338,606.7 222.88,607.284 221.963,607.607 L217.369,609.372 L217.369,625.091 M213.666,584.466 L205.369,587.388 L205.369,603.403 L213.666,600.482 L213.666,584.466 "/>
<path class="KeySig" d="M292.374,302.035 C292.374,303.275 291.757,303.894 290.523,303.894 C289.288,303.894 288.671,303.275 288.671,302.035 L288.671,287.582 L280.374,290.707 L280.374,306.519 C280.374,307.759 279.754,308.379 278.515,308.379 C277.275,308.379 276.655,307.759 276.655,306.519 L276.655,291.972 L273.53,293.144 C273.468,293.207 273.207,293.238 272.749,293.238 C272.228,293.238 271.773,293.043 271.382,292.652 C270.991,292.262 270.796,291.806 270.796,291.285 L270.796,285.238 C270.796,284.259 271.218,283.639 272.062,283.379 L276.655,281.816 L276.655,265.801 L273.53,266.879 C273.468,266.941 273.207,266.972 272.749,266.972 C272.228,266.972 271.773,266.777 271.382,266.387 C270.991,265.996 270.796,265.54 270.796,265.019 L270.796,258.957 C270.796,258.051 271.218,257.467 272.062,257.207 L276.655,255.441 L276.655,239.722 C276.655,238.483 277.275,237.863 278.515,237.863 C279.754,237.863 280.374,238.483 280.374,239.722 L280.374,254.176 L288.671,251.051 L288.671,235.238 C288.671,233.999 289.288,233.379 290.523,233.379 C291.757,233.379 292.374,233.999 292.374,235.238 L292.374,249.785 L295.608,248.613 C295.671,248.551 295.895,248.519 296.28,248.519 C296.739,248.519 297.228,248.712 297.749,249.097 C298.145,249.493 298.343,249.952 298.343,250.472 L298.343,256.519 C298.343,257.436 297.884,258.056 296.968,258.379 L292.374,259.941 L292.374,275.957 L295.608,274.879 C295.671,274.816 295.895,274.785 296.28,274.785 C296.739,274.785 297.228,274.983 297.749,275.379 C298.145,275.764 298.343,276.217 298.343,276.738 L298.343,282.801 C298.343,283.644 297.884,284.228 296.968,284.551 L292.374,286.316 L292.374,302.035 M288.671,261.41 L280.374,264.332 L280.374,280.347 L288.671,277.426 L288.671,261.41 "/>
<path class="KeySig" d="M267.373,264.533 C267.373,265.772 266.755,266.392 265.521,266.392 C264.287,266.392 263.669,265.772 263.669,264.533 L263.669,250.08 L255.373,253.205 L255.373,269.017 C255.373,270.257 254.753,270.876 253.513,270.876 C252.274,270.876 251.654,270.257 251.654,269.017 L251.654,254.47 L248.529,255.642 C248.466,255.705 248.206,255.736 247.748,255.736 C247.227,255.736 246.771,255.54 246.38,255.15 C245.99,254.759 245.794,254.303 245.794,253.783 L245.794,247.736 C245.794,246.757 246.216,246.137 247.06,245.876 L251.654,244.314 L251.654,228.298 L248.529,229.376 C248.466,229.439 248.206,229.47 247.748,229.47 C247.227,229.47 246.771,229.275 246.38,228.884 C245.99,228.494 245.794,228.038 245.794,227.517 L245.794,221.455 C245.794,220.548 246.216,219.965 247.06,219.705 L251.654,217.939 L251.654,202.22 C251.654,200.981 252.274,200.361 253.513,200.361 C254.753,200.361 255.373,200.981 255.373,202.22 L255.373,216.673 L263.669,213.548 L263.669,197.736 C263.669,196.496 264.287,195.876 265.521,195.876 C266.755,195.876 267.373,196.496 267.373,197.736 L267.373,212.283 L270.607,211.111 C270.669,211.048 270.893,211.017 271.279,211.017 C271.737,211.017 272.227,211.21 272.748,211.595 C273.143,211.991 273.341,212.449 273.341,212.97 L273.341,219.017 C273.341,219.934 272.883,220.553 271.966,220.876 L267.373,222.439 L267.373,238.455 L270.607,237.376 C270.669,237.314 270.893,237.283 271.279,237.283 C271.737,237.283 272.227,237.481 272.748,237.876 C273.143,238.262 273.341,238.715 273.341,239.236 L273.341,245.298 C273.341,246.142 272.883,246.725 271.966,247.048 L267.373,248.814 L267.373,264.533 M263.669,223.908 L255.373,226.83 L255.373,242.845 L263.669,239.923 L263.669,223.908 "/>
<path class="KeySig" d="M242.371,314.536 C242.371,315.775 241.754,316.395 240.519,316.395 C239.285,316.395 238.668,315.775 238.668,314.536 L238.668,300.083 L230.371,303.208 L230.371,319.02 C230.371,320.26 229.751,320.88 228.512,320.88 C227.272,320.88 226.652,320.26 226.652,319.02 L226.652,304.473 L223.527,305.645 C223.465,305.708 223.204,305.739 222.746,305.739 C222.225,305.739 221.769,305.544 221.379,305.153 C220.988,304.762 220.793,304.307 220.793,303.786 L220.793,297.739 C220.793,296.76 221.215,296.14 222.058,295.88 L226.652,294.317 L226.652,278.301 L223.527,279.38 C223.465,279.442 223.204,279.473 222.746,279.473 C222.225,279.473 221.769,279.278 221.379,278.887 C220.988,278.497 220.793,278.041 220.793,277.52 L220.793,271.458 C220.793,270.551 221.215,269.968 222.058,269.708 L226.652,267.942 L226.652,252.223 C226.652,250.984 227.272,250.364 228.512,250.364 C229.751,250.364 230.371,250.984 230.371,252.223 L230.371,266.676 L238.668,263.551 L238.668,247.739 C238.668,246.499 239.285,245.88 240.519,245.88 C241.754,245.88 242.371,246.499 242.371,247.739 L242.371,262.286 L245.605,261.114 C245.668,261.051 245.892,261.02 246.277,261.02 C246.736,261.02 247.225,261.213 247.746,261.598 C248.142,261.994 248.34,262.452 248.34,262.973 L248.34,269.02 C248.34,269.937 247.881,270.557 246.965,270.88 L242.371,272.442 L242.371,288.458 L245.605,287.38 C245.668,287.317 245.892,287.286 246.277,287.286 C246.736,287.286 247.225,287.484 247.746,287.88 C248.142,288.265 248.34,288.718 248.34,289.239 L248.34,295.301 C248.34,296.145 247.881,296.728 246.965,297.051 L242.371,298.817 L242.371,314.536 M238.668,273.911 L230.371,276.833 L230.371,292.848 L238.668,289.926 L238.668,273.911 "/>
<path class="KeySig" d="M217.369,277.033 C217.369,278.273 216.752,278.893 215.518,278.893 C214.283,278.893 213.666,278.273 213.666,277.033 L213.666,262.58 L205.369,265.705 L205.369,281.518 C205.369,282.757 204.75,283.377 203.51,283.377 C202.27,283.377 201.651,282.757 201.651,281.518 L201.651,266.971 L198.526,268.143 C198.463,268.205 198.203,268.237 197.744,268.237 C197.224,268.237 196.768,268.041 196.377,267.651 C195.987,267.26 195.791,266.804 195.791,266.283 L195.791,260.237 C195.791,259.257 196.213,258.638 197.057,258.377 L201.651,256.815 L201.651,240.799 L198.526,241.877 C198.463,241.94 198.203,241.971 197.744,241.971 C197.224,241.971 196.768,241.776 196.377,241.385 C195.987,240.994 195.791,240.539 195.791,240.018 L195.791,233.955 C195.791,233.049 196.213,232.466 197.057,232.205 L201.651,230.44 L201.651,214.721 C201.651,213.481 202.27,212.862 203.51,212.862 C204.75,212.862 205.369,213.481 205.369,214.721 L205.369,229.174 L213.666,226.049 L213.666,210.237 C213.666,208.997 214.283,208.377 215.518,208.377 C216.752,208.377 217.369,208.997 217.369,210.237 L217.369,224.783 L220.604,223.612 C220.666,223.549 220.89,223.518 221.276,223.518 C221.734,223.518 222.224,223.71 222.744,224.096 C223.14,224.492 223.338,224.95 223.338,225.471 L223.338,231.518 C223.338,232.434 222.88,233.054 221.963,233.377 L217.369,234.94 L217.369,250.955 L220.604,249.877 C220.666,249.815 220.89,249.783 221.276,249.783 C221.734,249.783 222.224,249.981 222.744,250.377 C223.14,250.763 223.338,251.216 223.338,251.737 L223.338,257.799 C223.338,258.643 222.88,259.226 221.963,259.549 L217.369,261.315 L217.369,277.033 M213.666,236.408 L205.369,239.33 L205.369,255.346 L213.666,252.424 L213.666,236.408 "/>
<path class="TimeSig" d="M346.135,570.114 C348.083,570.114 349.742,569.888 351.112,569.435 C352.482,568.982 353.359,568.755 353.745,568.755 C354.203,568.755 354.562,568.885 354.823,569.146 C355.021,569.333 355.151,569.557 355.213,569.817 C355.213,569.953 355.146,570.151 355.01,570.411 L326.604,603.427 L343.291,603.427 L343.291,590.333 C343.291,589.489 343.521,588.771 343.979,588.177 C344.76,587.531 345.411,587.14 345.932,587.005 C346.776,586.62 347.818,585.708 349.057,584.271 C350.099,583.104 351.338,581.057 352.776,578.13 C352.963,577.734 353.255,577.536 353.651,577.536 C354.432,577.536 354.885,577.995 355.01,578.911 L355.01,603.427 L362.151,603.427 C363.057,603.427 363.578,603.911 363.713,604.88 C363.713,605.859 363.193,606.349 362.151,606.349 L355.01,606.349 L355.01,607.13 C355.01,609.734 355.661,611.948 356.963,613.771 C358.463,615.594 360.224,616.505 362.245,616.505 C363.026,616.505 363.416,616.896 363.416,617.677 C363.416,618.458 363.026,618.849 362.245,618.849 C360.88,618.849 358.666,618.656 355.604,618.271 C352.802,617.812 350.62,617.583 349.057,617.583 C347.432,617.583 345.25,617.812 342.51,618.271 C339.583,618.656 337.406,618.849 335.979,618.849 C335.198,618.849 334.807,618.458 334.807,617.677 C334.807,616.896 335.198,616.505 335.979,616.505 C337.989,616.505 339.745,615.594 341.245,613.771 C342.609,611.885 343.291,609.672 343.291,607.13 L343.291,606.349 L326.604,606.349 C325.489,606.349 324.708,606.088 324.26,605.567 C323.729,605.182 323.463,604.661 323.463,604.005 C323.463,603.807 323.953,603.125 324.932,601.958 C326.047,600.656 327.219,599.062 328.448,597.177 C329.885,594.958 331.255,592.677 332.557,590.333 C333.984,587.666 335.125,584.604 335.979,581.146 C336.948,577.635 337.432,574.057 337.432,570.411 C337.432,569.37 337.89,568.849 338.807,568.849 C339.005,568.849 339.427,568.948 340.073,569.146 C340.271,569.208 340.679,569.304 341.299,569.435 C341.919,569.565 342.422,569.692 342.807,569.817 C343.984,570.015 345.094,570.114 346.135,570.114"/>
<path class="TimeSig" d="M346.135,620.289 C348.083,620.289 349.742,620.063 351.112,619.61 C352.482,619.157 353.359,618.93 353.745,618.93 C354.203,618.93 354.562,619.06 354.823,619.321 C355.021,619.508 355.151,619.732 355.213,619.993 C355.213,620.128 355.146,620.326 355.01,620.586 L326.604,653.602 L343.291,653.602 L343.291,640.508 C343.291,639.664 343.521,638.946 343.979,638.352 C344.76,637.706 345.411,637.315 345.932,637.18 C346.776,636.795 347.818,635.883 349.057,634.446 C350.099,633.279 351.338,631.232 352.776,628.305 C352.963,627.909 353.255,627.711 353.651,627.711 C354.432,627.711 354.885,628.17 355.01,629.086 L355.01,653.602 L362.151,653.602 C363.057,653.602 363.578,654.086 363.713,655.055 C363.713,656.034 363.193,656.524 362.151,656.524 L355.01,656.524 L355.01,657.305 C355.01,659.909 355.661,662.123 356.963,663.946 C358.463,665.769 360.224,666.68 362.245,666.68 C363.026,666.68 363.416,667.071 363.416,667.852 C363.416,668.633 363.026,669.024 362.245,669.024 C360.88,669.024 358.666,668.831 355.604,668.446 C352.802,667.987 350.62,667.758 349.057,667.758 C347.432,667.758 345.25,667.987 342.51,668.446 C339.583,668.831 337.406,669.024 335.979,669.024 C335.198,669.024 334.807,668.633 334.807,667.852 C334.807,667.071 335.198,666.68 335.979,666.68 C337.989,666.68 339.745,665.769 341.245,663.946 C342.609,662.06 343.291,659.847 343.291,657.305 L343.291,656.524 L326.604,656.524 C325.489,656.524 324.708,656.263 324.26,655.743 C323.729,655.357 323.463,654.836 323.463,654.18 C323.463,653.982 323.953,653.3 324.932,652.133 C326.047,650.831 327.219,649.237 328.448,647.352 C329.885,645.133 331.255,642.852 332.557,640.508 C333.984,637.841 335.125,634.779 335.979,631.321 C336.948,627.81 337.432,624.232 337.432,620.586 C337.432,619.545 337.89,619.024 338.807,619.024 C339.005,619.024 339.427,619.123 340.073,619.321 C340.271,619.383 340.679,619.48 341.299,619.61 C341.919,619.74 342.422,619.868 342.807,619.993 C343.984,620.19 345.094,620.289 346.135,620.289"/>
<path class="TimeSig" d="M346.135,247.058 C348.083,247.058 349.742,246.832 351.112,246.379 C352.482,245.926 353.359,245.699 353.745,245.699 C354.203,245.699 354.562,245.829 354.823,246.09 C355.021,246.277 355.151,246.501 355.213,246.762 C355.213,246.897 355.146,247.095 355.01,247.355 L326.604,280.371 L343.291,280.371 L343.291,267.277 C343.291,266.433 343.521,265.715 343.979,265.121 C344.76,264.475 345.411,264.084 345.932,263.949 C346.776,263.564 347.818,262.652 349.057,261.215 C350.099,260.048 351.338,258.001 352.776,255.074 C352.963,254.678 353.255,254.48 353.651,254.48 C354.432,254.48 354.885,254.939 355.01,255.855 L355.01,280.371 L362.151,280.371 C363.057,280.371 363.578,280.855 363.713,281.824 C363.713,282.803 363.193,283.293 362.151,283.293 L355.01,283.293 L355.01,284.074 C355.01,286.678 355.661,288.892 356.963,290.715 C358.463,292.538 360.224,293.449 362.245,293.449 C363.026,293.449 363.416,293.84 363.416,294.621 C363.416,295.402 363.026,295.793 362.245,295.793 C360.88,295.793 358.666,295.6 355.604,295.215 C352.802,294.756 350.62,294.527 349.057,294.527 C347.432,294.527 345.25,294.756 342.51,295.215 C339.583,295.6 337.406,295.793 335.979,295.793 C335.198,295.793 334.807,295.402 334.807,294.621 C334.807,293.84 335.198,293.449 335.979,293.449 C337.989,293.449 339.745,292.538 341.245,290.715 C342.609,288.829 343.291,286.616 343.291,284.074 L343.291,283.293 L326.604,283.293 C325.489,283.293 324.708,283.032 324.26,282.512 C323.729,282.126 323.463,281.605 323.463,280.949 C323.463,280.751 323.953,280.069 324.932,278.902 C326.047,277.6 327.219,276.006 328.448,274.121 C329.885,271.902 331.255,269.621 332.557,267.277 C333.984,264.611 335.125,261.548 335.979,258.09 C336.948,254.579 337.432,251.001 337.432,247.355 C337.432,246.314 337.89,245.793 338.807,245.793 C339.005,245.793 339.427,245.892 340.073,246.09 C340.271,246.152 340.679,246.249 341.299,246.379 C341.919,246.509 342.422,246.637 342.807,246.762 C343.984,246.959 345.094,247.058 346.135,247.058"/>
<path class="TimeSig" d="M346.135,297.233 C348.083,297.233 349.742,297.007 351.112,296.554 C352.482,296.101 353.359,295.874 353.745,295.874 C354.203,295.874 354.562,296.004 354.823,296.265 C355.021,296.452 355.151,296.676 355.213,296.937 C355.213,297.072 355.146,297.27 355.01,297.53 L326.604,330.546 L343.291,330.546 L343.291,317.452 C343.291,316.608 343.521,315.89 343.979,315.296 C344.76,314.65 345.411,314.259 345.932,314.124 C346.776,313.739 347.818,312.827 349.057,311.39 C350.099,310.223 351.338,308.176 352.776,305.249 C352.963,304.853 353.255,304.655 353.651,304.655 C354.432,304.655 354.885,305.114 355.01,306.03 L355.01,330.546 L362.151,330.546 C363.057,330.546 363.578,331.03 363.713,331.999 C363.713,332.978 363.193,333.468 362.151,333.468 L355.01,333.468 L355.01,334.249 C355.01,336.853 355.661,339.067 356.963,340.89 C358.463,342.713 360.224,343.624 362.245,343.624 C363.026,343.624 363.416,344.015 363.416,344.796 C363.416,345.577 363.026,345.968 362.245,345.968 C360.88,345.968 358.666,345.775 355.604,345.39 C352.802,344.931 350.62,344.702 349.057,344.702 C347.432,344.702 345.25,344.931 342.51,345.39 C339.583,345.775 337.406,345.968 335.979,345.968 C335.198,345.968 334.807,345.577 334.807,344.796 C334.807,344.015 335.198,343.624 335.979,343.624 C337.989,343.624 339.745,342.713 341.245,340.89 C342.609,339.004 343.291,336.791 343.291,334.249 L343.291,333.468 L326.604,333.468 C325.489,333.468 324.708,333.207 324.26,332.687 C323.729,332.301 323.463,331.78 323.463,331.124 C323.463,330.926 323.953,330.244 324.932,329.077 C326.047,327.775 327.219,326.181 328.448,324.296 C329.885,322.077 331.255,319.796 332.557,317.452 C333.984,314.786 335.125,311.723 335.979,308.265 C336.948,304.754 337.432,301.176 337.432,297.53 C337.432,296.489 337.89,295.968 338.807,295.968 C339.005,295.968 339.427,296.067 340.073,296.265 C340.271,296.327 340.679,296.424 341.299,296.554 C341.919,296.684 342.422,296.812 342.807,296.937 C343.984,297.134 345.094,297.233 346.135,297.233"/>
<path class="Dynamic" d="M451.893,423.218 C450.132,423.218 448.554,424.155 447.158,426.03 C445.596,428.114 444.455,430.296 443.736,432.577 C443.018,434.89 442.658,436.905 442.658,438.624 C442.658,441.072 443.559,442.296 445.361,442.296 C446.955,442.296 448.335,441.676 449.502,440.437 C450.814,439.072 451.913,436.728 452.799,433.405 C453.757,429.968 454.236,427.572 454.236,426.218 C454.153,424.218 453.372,423.218 451.893,423.218 M437.314,418.593 C438.919,418.593 440.34,419.023 441.58,419.882 C442.82,420.741 443.601,421.911 443.924,423.39 C445.205,421.952 446.723,420.793 448.479,419.913 C450.234,419.033 451.893,418.593 453.455,418.593 C456.538,418.593 458.939,419.572 460.658,421.53 C462.335,423.53 463.174,426.072 463.174,429.155 C463.174,434.27 461.398,438.447 457.846,441.687 C454.523,444.447 451.538,445.827 448.893,445.827 C447.299,445.827 446.002,445.666 445.002,445.343 C443.721,445.03 442.882,444.734 442.486,444.452 C441.924,444.129 441.46,443.968 441.096,443.968 C440.262,443.968 439.705,444.291 439.424,444.937 L435.877,455.546 L435.877,456.03 C435.877,456.666 436.356,457.025 437.314,457.109 C437.637,457.192 438.13,457.262 438.791,457.319 C439.452,457.377 439.939,457.405 440.252,457.405 C441.221,457.572 441.705,457.832 441.705,458.187 C441.705,458.666 441.465,458.905 440.986,458.905 C435.299,458.593 431.617,458.437 429.939,458.437 C428.137,458.437 424.398,458.593 418.721,458.905 C418.2,458.905 417.981,458.666 418.064,458.187 C418.064,457.791 418.481,457.51 419.314,457.343 C419.721,457.27 421.403,457.234 424.361,457.234 C425.715,457.234 426.512,456.812 426.752,455.968 L437.018,426.327 C437.215,425.609 437.314,425.129 437.314,424.89 C437.314,423.775 436.794,423.218 435.752,423.218 C434.273,423.218 432.734,424.155 431.135,426.03 C429.536,427.905 428.278,429.905 427.361,432.03 C427.122,432.593 426.721,432.895 426.158,432.937 C425.679,432.937 425.439,432.734 425.439,432.327 C425.439,431.806 425.601,431.327 425.924,430.89 C427.205,428.129 428.544,425.629 429.939,423.39 C430.814,422.109 431.913,421.01 433.236,420.093 C434.518,419.093 435.877,418.593 437.314,418.593"/>
<path class="Dynamic" d="M930.06,432.937 C930.06,432.728 930.221,432.207 930.544,431.374 C931.461,428.853 932.799,426.353 934.56,423.874 C936.883,420.635 939.44,419.015 942.232,419.015 C943.44,419.015 944.383,419.494 945.06,420.452 C945.695,421.327 946.075,422.468 946.2,423.874 C948.315,420.635 950.716,419.015 953.403,419.015 C954.476,419.015 955.435,419.494 956.278,420.452 C957.039,421.536 957.476,422.754 957.591,424.109 C959.633,420.713 961.976,419.015 964.622,419.015 C965.903,419.015 967.133,419.564 968.31,420.663 C969.487,421.762 970.075,423.234 970.075,425.077 C970.075,425.431 970.018,425.869 969.903,426.39 L966.716,439.952 C966.674,440.109 966.653,440.228 966.653,440.312 C966.653,440.832 966.836,441.093 967.2,441.093 C967.836,441.093 968.836,440.572 970.2,439.53 L972.294,437.905 C972.7,437.905 972.903,438.067 972.903,438.39 C972.903,438.629 972.799,438.848 972.591,439.046 C969.758,441.734 967.778,443.473 966.653,444.265 C964.82,445.588 963.06,446.249 961.372,446.249 C960.414,446.249 959.695,445.989 959.216,445.468 C958.695,444.905 958.414,444.244 958.372,443.484 C958.372,443.213 958.414,442.895 958.497,442.53 L961.919,427.655 C962.034,427.051 962.112,426.629 962.153,426.39 C962.153,425.234 961.836,424.655 961.2,424.655 C960.44,424.655 959.659,424.952 958.857,425.546 C958.18,426.067 957.7,426.77 957.419,427.655 L952.435,444.937 C952.237,445.572 951.857,445.89 951.294,445.89 L946.075,445.89 C945.596,445.89 945.357,445.692 945.357,445.296 C945.357,445.171 945.377,445.051 945.419,444.937 L950.341,427.655 C950.539,426.937 950.638,426.457 950.638,426.218 C950.638,425.176 950.237,424.655 949.435,424.655 C948.674,424.655 947.935,424.973 947.216,425.609 C946.456,426.254 945.956,426.937 945.716,427.655 L939.841,444.937 C939.643,445.572 939.242,445.89 938.638,445.89 L933.419,445.89 C933.023,445.89 932.825,445.728 932.825,445.405 C932.825,445.291 932.862,445.135 932.935,444.937 L938.825,427.655 C939.023,427.051 939.122,426.588 939.122,426.265 C939.122,425.192 938.664,424.655 937.747,424.655 C936.466,424.655 935.341,425.515 934.372,427.234 C933.622,428.348 932.805,430.145 931.919,432.624 C931.721,433.187 931.299,433.468 930.653,433.468 C930.258,433.353 930.06,433.176 930.06,432.937 M991.778,420.515 L986.982,435.984 C985.18,441.744 982.398,447.124 978.638,452.124 C974.68,457.364 970.643,459.984 966.528,459.984 C964.362,459.984 962.458,459.424 960.818,458.304 C959.177,457.184 958.357,455.728 958.357,453.937 C958.357,451.895 958.799,450.171 959.685,448.765 C960.601,447.327 961.799,446.609 963.278,446.609 C964.445,446.609 965.417,447.028 966.193,447.866 C966.969,448.705 967.357,449.666 967.357,450.749 C967.357,451.791 966.799,452.692 965.685,453.452 C964.445,454.286 963.825,455.124 963.825,455.968 C963.825,456.614 964.685,456.937 966.403,456.937 C968.206,456.937 969.586,456.192 970.544,454.702 C971.586,453.109 972.424,450.832 973.06,447.874 C973.216,447.072 973.336,446.53 973.419,446.249 L979.841,420.515 L974.857,420.515 C974.419,420.515 974.081,420.353 973.841,420.03 C973.601,419.635 973.482,419.254 973.482,418.89 C973.482,418.411 973.601,418.051 973.841,417.812 C974.164,417.489 974.502,417.327 974.857,417.327 L980.747,417.327 C982.299,412.609 984.976,408.39 988.778,404.671 C992.497,401.036 996.497,399.218 1000.78,399.218 C1002.98,399.218 1004.88,399.796 1006.48,400.952 C1008.09,402.109 1008.9,403.546 1008.93,405.265 C1008.93,407.192 1008.52,408.895 1007.68,410.374 C1006.68,411.812 1005.48,412.53 1004.08,412.53 C1002.92,412.53 1001.94,412.122 1001.14,411.304 C1000.34,410.486 999.935,409.536 999.935,408.452 C999.935,407.494 1000.53,406.645 1001.71,405.905 C1002.89,405.166 1003.48,404.275 1003.48,403.234 C1003.48,402.515 1002.58,402.155 1000.78,402.155 C999.82,402.155 998.841,402.494 997.841,403.171 C997.206,403.609 996.487,404.53 995.685,405.937 C995.164,406.812 994.721,407.89 994.357,409.171 C994.284,409.452 994.008,410.89 993.528,413.484 C993.247,415.004 992.945,416.286 992.622,417.327 L998.013,417.327 C998.461,417.327 998.844,417.478 999.161,417.78 C999.479,418.082 999.638,418.452 999.638,418.89 C999.638,419.327 999.479,419.707 999.161,420.03 C998.844,420.353 998.461,420.515 998.013,420.515 L991.778,420.515 "/>
<polyline class="HairpinSegment" fill="none" stroke="#000000" stroke-width="3.25" stroke-linecap="square" stroke-linejoin="bevel" points="546.41,433.389 888.41,448.389"/>
<polyline class="HairpinSegment" fill="none" stroke="#000000" stroke-width="3.25" stroke-linecap="square" stroke-linejoin="bevel" points="546.41,433.389 888.41,418.389"/>
<path class="Bracket" fill-rule="evenodd" d="M69.3967,396.392 C69.3967,362.309 49.2811,329.179 49.2811,296.525 C49.2811,280.08 54.7672,264.111 71.6825,249.81 C71.9111,249.631 72.0254,249.333 72.0254,249.154 C72.0254,248.618 70.7682,248.141 69.8539,248.141 C69.3967,248.141 68.5966,248.201 68.0252,248.618 C46.0809,266.971 38.7662,288.183 38.7662,309.634 C38.7662,344.194 60.2533,377.563 60.2533,410.693 C60.2533,427.138 54.7672,442.631 37.8518,456.932 L37.8518,457.408 L37.8518,457.885 C54.7672,472.186 60.2533,487.678 60.2533,504.124 C60.2533,537.254 38.7662,570.622 38.7662,605.182 C38.7662,626.633 46.0809,647.846 68.0252,666.198 C68.5966,666.616 69.3967,666.675 69.8539,666.675 C70.7682,666.675 72.0254,666.198 72.0254,665.662 C72.0254,665.483 71.9111,665.185 71.6825,665.007 C54.7672,650.706 49.2811,634.737 49.2811,618.291 C49.2811,585.638 69.3967,552.508 69.3967,518.425 C69.3967,496.735 62.0819,475.999 40.5949,457.408 C62.0819,438.817 69.3967,418.081 69.3967,396.392"/>
</svg>
